<?xml version="1.0" encoding="UTF-8" standalone="no"?>
<!-- Created with Inkscape (http://www.inkscape.org/) -->

<svg
   xmlns:dc="http://purl.org/dc/elements/1.1/"
   xmlns:cc="http://creativecommons.org/ns#"
   xmlns:rdf="http://www.w3.org/1999/02/22-rdf-syntax-ns#"
   xmlns:svg="http://www.w3.org/2000/svg"
   xmlns="http://www.w3.org/2000/svg"
   xmlns:sodipodi="http://sodipodi.sourceforge.net/DTD/sodipodi-0.dtd"
   xmlns:inkscape="http://www.inkscape.org/namespaces/inkscape"
   width="210mm"
   height="297mm"
   viewBox="0 0 210 297"
   version="1.1"
   id="svg959"
   inkscape:version="0.92.2 5c3e80d, 2017-08-06"
   sodipodi:docname="butterfly-stencil2.svg">
  <defs
     id="defs953" />
  <sodipodi:namedview
     id="base"
     pagecolor="#ffffff"
     bordercolor="#666666"
     borderopacity="1.0"
     inkscape:pageopacity="0.0"
     inkscape:pageshadow="2"
     inkscape:zoom="0.35"
     inkscape:cx="-182.85714"
     inkscape:cy="560"
     inkscape:document-units="mm"
     inkscape:current-layer="layer1"
     showgrid="false"
     inkscape:window-width="1920"
     inkscape:window-height="983"
     inkscape:window-x="0"
     inkscape:window-y="27"
     inkscape:window-maximized="1" />
  <metadata
     id="metadata956">
    <rdf:RDF>
      <cc:Work
         rdf:about="">
        <dc:format>image/svg+xml</dc:format>
        <dc:type
           rdf:resource="http://purl.org/dc/dcmitype/StillImage" />
        <dc:title></dc:title>
      </cc:Work>
    </rdf:RDF>
  </metadata>
  <g
     inkscape:label="Layer 1"
     inkscape:groupmode="layer"
     id="layer1">
    <path
       id="path826-3-7"
       style="fill:#ff0000;fill-opacity:1;stroke:none;stroke-width:3;stroke-miterlimit:4;stroke-dasharray:none;stroke-opacity:1"
       d="m -8.6246467,-24.50397 c -0.40965,0.0524 -8.3596303,-14.35696 -9.0834503,-16.46375 -0.36459,-3.06811 -5.75697,-2.27646 -6.15001,-1.73347 -0.26817,0.69884 0.49347,2.05809 1.71422,3.05932 3.53169,5.9117 8.76934,10.42565 9.12942,17.20579 5.2178903,10.83505 -4.52772,0.98973 -9.32696,-3.95897 -10.65913,-10.64988 -16.02282,-15.70048 -25.63141,-24.13524 -25.94267,-22.77341 -53.482993,-42.16314 -76.457873,-53.83009 -10.5884,-5.37693 -19.23185,-8.4709 -27.68935,-9.91157 -8.68161,-1.47884 -15.64476,-0.78286 -21.65546,2.1645 -2.41011,1.18181 -3.09742,1.68048 -5.18858,3.76463 -1.9876,1.98093 -2.59945,2.79596 -3.48771,4.64587 -1.44608,3.01162 -1.90979,4.86288 -2.08965,8.3426 -0.32602,6.307 1.76225,11.87623 6.39386,17.05193 7.35661,8.22075 12.35075,20.19046 16.77967,40.21666 0.43447,1.96453 1.62888,7.92832 2.65424,13.25287 1.0254,5.32455 2.20742,11.03955 2.62679,12.70001 0.86206,3.4133805 3.639,11.17515048 5.7658,16.1158705 6.72396,15.6203995 16.73146,23.8790795 31.26175,25.7987295 1.64457,0.21726 3.75793,0.39502 4.69634,0.39502 0.93843,0 1.70625,0.10919 1.70625,0.24266 0,0.13344 -0.24831,0.81806 -0.55182,1.52134 -2.98946,6.92762 -5.3659,15.62615 -6.49347,23.7683 -0.65536,4.73238 -0.65633,13.88104 -0.003,18.12396 1.16332,7.54245 3.16275,13.45131 6.56119,19.38996 4.40332,7.69472 11.94322,15.12504 20.726653,20.42541 3.80625,2.2969 14.39011,7.52896 17.62355,8.71212 13.51573,4.94549 21.79743,3.95582 27.57455,-3.29528 2.69944,-3.3882 4.22318,-6.3283 7.81005,-15.06971 4.17075,-10.16437 7.95335,-18.41955 14.66941,-32.01458 l 4.24796,-8.59897 0.34272,2.38125 c 1.29115,8.9711 2.68929,15.69469 4.35789,20.95697 2.73729,8.63257 6.1391403,12.82541 10.4993903,12.48986 4.36026003,0.33555 7.76211,-3.85729 10.4994,-12.48986 1.6686,-5.26228 3.06674,-11.98587 4.35789,-20.95697 l 0.34272,-2.38125 4.2479597,8.59897 c 6.71606,13.59503 10.49866,21.85021 14.66941,32.01458 3.58687,8.74141 5.11061,11.68151 7.81006,15.06971 5.77712,7.2511 14.05882,8.24077 27.57455,3.29528 3.23344,-1.18316 13.8173,-6.41522 17.62353,-8.71212 8.78343,-5.30037 16.32334,-12.73069 20.726657,-20.42541 3.39845,-5.93865 5.39788,-11.84751 6.5612,-19.38996 0.65333,-4.24292 0.65235,-13.39158 -0.003,-18.12396 -1.12754,-8.14215 -3.504,-16.84069 -6.49345,-23.76831 -0.30351,-0.70327 -0.55182,-1.38789 -0.55182,-1.52133 0,-0.13348 0.76782,-0.24266 1.70625,-0.24266 0.9384,0 3.05175,-0.17776 4.69633,-0.39503 14.5303,-1.91964 24.5378,-10.17832 31.26176,-25.7987195 2.1268,-4.94073002 4.90373,-12.70249 5.7658,-16.1158705 0.41936,-1.66046 1.60139,-7.37546 2.62678,-12.70001 1.02537,-5.32455 2.21978,-11.28834 2.65425,-13.25287 4.42891,-20.02619 9.42306,-31.99591 16.77966,-40.21666 4.63161,-5.17569 6.71989,-10.74492 6.39387,-17.05193 -0.17986,-3.47972 -0.64357,-5.33098 -2.08965,-8.3426 -0.88826,-1.84991 -1.50011,-2.66494 -3.48771,-4.64587 -2.09116,-2.08415 -2.77847,-2.58282 -5.18859,-3.76463 -6.0107,-2.94736 -12.97384,-3.64334 -21.65546,-2.1645 -8.45748,1.44067 -17.10094,4.53464 -27.68933,9.91157 -22.974877,11.66695 -50.515197,31.05668 -76.457867,53.83009 -9.60859,8.43476 -14.97228,13.48536 -25.63141,24.13524 -4.7992397,4.9487 -14.5448497,14.79402 -9.3269597,3.95897 0.36008,-6.78014 5.59773,-11.29409 9.1294197,-17.20579 1.22075,-1.00123 1.98239,-2.36048 1.71422,-3.05931 -0.39304,-0.543 -5.7854197,-1.33465 -6.1500097,1.73346 -0.72382,2.1068 -8.6738,16.51615 -9.08345,16.46375 3.95655,-0.57511 -2.43424,-0.53174 -3.33297,-0.52377 -0.89873,-0.008 -7.2895203,-0.0513 -3.33297,0.52377 z"
       inkscape:connector-curvature="0"
       sodipodi:nodetypes="ccccccssscccccsccccsscccccccsscccccccsscccccccssccccscccccssscccccccc" />
  </g>
</svg>
