<?xml version="1.0" encoding="UTF-8" standalone="no"?>
<!-- Created with Inkscape (http://www.inkscape.org/) -->

<svg
   xmlns:dc="http://purl.org/dc/elements/1.1/"
   xmlns:cc="http://creativecommons.org/ns#"
   xmlns:rdf="http://www.w3.org/1999/02/22-rdf-syntax-ns#"
   xmlns:svg="http://www.w3.org/2000/svg"
   xmlns="http://www.w3.org/2000/svg"
   xmlns:sodipodi="http://sodipodi.sourceforge.net/DTD/sodipodi-0.dtd"
   xmlns:inkscape="http://www.inkscape.org/namespaces/inkscape"
   width="25.267719in"
   height="30.00001in"
   viewBox="0 0 641.80008 762.00026"
   version="1.1"
   id="svg2038"
   inkscape:version="0.92.4 5da689c313, 2019-01-14"
   sodipodi:docname="rideMybike.svg">
  <defs
     id="defs2032" />
  <sodipodi:namedview
     id="base"
     pagecolor="#ffffff"
     bordercolor="#666666"
     borderopacity="1.0"
     inkscape:pageopacity="0.0"
     inkscape:pageshadow="2"
     inkscape:zoom="0.24748737"
     inkscape:cx="-185.71429"
     inkscape:cy="1734.5589"
     inkscape:document-units="mm"
     inkscape:current-layer="layer1"
     showgrid="false"
     inkscape:window-width="1920"
     inkscape:window-height="983"
     inkscape:window-x="0"
     inkscape:window-y="27"
     inkscape:window-maximized="1"
     units="in" />
  <metadata
     id="metadata2035">
    <rdf:RDF>
      <cc:Work
         rdf:about="">
        <dc:format>image/svg+xml</dc:format>
        <dc:type
           rdf:resource="http://purl.org/dc/dcmitype/StillImage" />
        <dc:title></dc:title>
      </cc:Work>
    </rdf:RDF>
  </metadata>
  <g
     inkscape:label="Layer 1"
     inkscape:groupmode="layer"
     id="layer1"
     transform="translate(0,465.0008)">
    <path
       style="fill:#00d4aa;stroke-width:1.4606787"
       d="M 7.1889598,-95.075712 V -453.69663 H 321.64357 636.0981 V -95.075712 263.54516 H 321.64357 7.1889598 Z M 471.50379,219.18567 c 4.02468,-4.01851 5.5472,-11.52912 3.39999,-16.77289 -0.8643,-2.11087 -4.31253,-5.46102 -7.66276,-7.4448 -4.80405,-2.84472 -6.09128,-4.46335 -6.09128,-7.65996 0,-5.37365 3.27727,-7.9545 7.44452,-5.86255 1.71198,0.85943 3.1127,2.81344 3.1127,4.34219 0,1.52875 0.6787,2.77959 1.50822,2.77959 0.82948,0 1.50814,-2.47744 1.50814,-5.50533 0,-4.74087 -0.54153,-5.63283 -3.89872,-6.42326 -5.60561,-1.31969 -9.38427,0.22447 -11.9537,4.88518 -4.61628,8.37355 -2.84233,14.03715 6.23072,19.89261 5.22114,3.3695 6.60534,5.11679 6.60534,8.33788 0,4.67167 -3.73992,8.8632 -7.34687,8.23396 -1.35095,-0.23577 -3.64288,-2.65473 -5.09323,-5.37566 l -2.63698,-4.94726 -0.002,7.42705 -0.002,7.42711 h 5.76977 c 4.11083,0 6.72989,-0.95857 9.1088,-3.33386 z m 23.49066,1.76707 c 0.50389,-0.47264 -0.11801,-1.66466 -1.38247,-2.64892 -1.83421,-1.42786 -2.29872,-5.34773 -2.29872,-19.39812 0,-17.45164 0.0285,-17.6046 3.39338,-17.15661 2.18078,0.29035 3.56565,1.58956 3.87533,3.63509 0.82574,5.45366 2.61628,3.48569 2.57438,-2.8293 l -0.0399,-6.01239 H 489.4281 477.73975 v 6.01239 c 0,6.25768 2.44737,8.37405 3.28849,2.84379 0.26506,-1.74274 1.66964,-3.38089 3.12126,-3.64043 2.40872,-0.43042 2.6393,1.20587 2.6393,18.73006 0,12.57148 -0.55178,19.20185 -1.5972,19.20185 -0.87845,0 -1.28259,0.47747 -0.89806,1.06101 0.8348,1.26698 9.39334,1.42819 10.70103,0.2016 z m 18.74906,0.3069 c 0.30895,-0.0855 -0.15902,-0.96978 -1.04011,-1.96548 -0.88096,-0.99575 -1.75417,-5.77183 -1.94046,-10.61358 -0.56261,-14.62039 2.93862,-13.79538 7.69748,1.8139 3.44274,11.29235 4.93534,13.22545 8.23102,10.65984 2.69095,-2.09484 3.13471,-5.87691 0.62834,-5.35479 -0.93382,0.19456 -3.18305,-3.86093 -4.99834,-9.01205 -3.19923,-9.07839 -3.2165,-9.46299 -0.56432,-12.53517 3.3569,-3.88857 3.51879,-9.66634 0.38819,-13.85863 -1.94661,-2.6069 -3.77809,-3.14414 -10.71858,-3.14414 -7.45385,0 -8.23073,0.2711 -7.09212,2.47567 1.60848,3.11442 1.71387,35.38273 0.12884,39.44763 -1.06583,2.73335 -0.70832,2.98283 3.77044,2.63079 2.72138,-0.21392 5.20068,-0.45875 5.50962,-0.54399 z m -2.82398,-32.45691 c 0,-7.80566 0.53638,-8.69734 4.62837,-7.6936 6.29587,1.54438 4.8841,14.53121 -1.57969,14.53121 -2.63895,0 -3.04868,-0.91895 -3.04868,-6.83761 z m 36.95353,30.04283 c 5.30682,-5.37115 7.17226,-12.20564 6.53954,-23.95879 -0.88672,-16.47103 -8.38304,-23.30591 -16.85033,-15.3636 -5.638,5.28853 -9.02921,16.9378 -7.74262,26.59697 2.00994,15.08995 10.09002,20.78542 18.05341,12.72542 z m -10.76988,-5.62272 c -3.62379,-5.18772 -3.68444,-22.8165 -0.0963,-27.95341 3.74816,-5.3658 8.25347,-4.90023 10.93974,1.13034 2.97619,6.68136 2.87763,23.24559 -0.16247,27.31686 -3.1233,4.18275 -7.55759,3.97777 -10.68112,-0.49403 z m 29.61881,7.87085 c 0,-0.68011 -0.67866,-1.62999 -1.50815,-2.11088 -0.85754,-0.49726 -1.46284,-7.09366 -1.40311,-15.29129 l 0.10546,-14.41695 6.96951,16.76287 c 6.16938,14.83846 7.19622,16.47208 8.94395,14.23005 1.3823,-1.77317 1.97443,-7.93273 1.97443,-20.53752 0,-9.90258 0.41213,-19.01167 0.91546,-20.24247 0.71941,-1.75861 -0.13794,-2.23769 -4.00422,-2.23769 -4.71052,0 -4.81114,0.11236 -2.36666,2.64614 2.10695,2.1838 2.47719,5.08808 2.11899,16.62245 l -0.43379,13.97633 -6.78681,-16.59836 c -5.8691,-14.354 -7.24557,-16.60159 -10.18015,-16.62245 -3.49148,-0.0266 -4.55832,1.96294 -1.88523,3.51261 0.87915,0.50954 1.50817,8.4749 1.50817,19.0981 0,10.62328 -0.62902,18.58853 -1.50817,19.09818 -2.85522,1.65521 -1.49868,3.10639 3.01632,3.2268 2.48854,0.0663 4.52453,-0.43575 4.52453,-1.11592 z m 37.76548,-1.6696 c 3.85692,-2.67474 4.46348,-4.00915 4.46348,-9.81928 0,-3.69811 0.67866,-7.11722 1.50815,-7.59812 3.14092,-1.82086 1.31168,-3.53671 -3.77045,-3.53671 -5.4121,0 -6.50083,1.11701 -3.67366,3.76893 0.88268,0.82795 1.39164,4.29742 1.13109,7.70998 -0.39217,5.13642 -1.04154,6.28038 -3.77181,6.64491 -6.98992,0.93324 -11.72382,-15.16976 -8.12808,-27.64884 2.63246,-9.13626 11.02787,-11.54292 13.11084,-3.75839 0.49762,1.85934 1.58226,3.38068 2.41061,3.38068 0.8283,0 1.09404,-1.00697 0.59054,-2.23774 -0.50333,-1.23072 -0.91545,-3.70812 -0.91545,-5.50535 0,-4.35241 -6.43517,-5.994 -11.4396,-2.91825 -9.93999,6.10917 -12.7768,28.26612 -5.12926,40.06198 3.49747,5.39455 7.34167,5.80579 13.6136,1.4562 z m -317.77085,-15.0735 c 7.26671,-6.37317 10.58566,-13.98286 10.58566,-24.2714 0,-10.42052 -3.29467,-17.83463 -10.96118,-24.66651 -3.7952,-3.38196 -6.27257,-4.25944 -13.33469,-4.7229 -7.21206,-0.47319 -9.56298,-0.01 -13.95213,2.74045 -7.59259,4.76053 -13.57358,16.50301 -13.57358,26.64896 0,9.27912 5.77601,21.48479 12.25062,25.88744 8.77454,5.96662 21.12439,5.27807 28.9853,-1.61604 z m -21.57088,-16.0501 c -6.40695,-6.4507 -2.50455,-19.53876 5.8257,-19.53876 5.97421,0 9.92821,4.66117 9.73758,11.4792 -0.28102,10.05415 -9.06449,14.60273 -15.56328,8.05956 z m -225.97027,-8.2213 -0.0708,-29.00091 -7.66293,-0.42776 -7.66295,-0.42773 v 29.85613 29.85607 l 7.73362,-0.42776 7.7336,-0.42772 z m 36.63547,8.91656 c 0,-19.79953 1.13748,-24.75672 5.14721,-22.43219 2.43309,1.41048 1.98539,6.12013 -0.7166,7.53848 -3.66438,1.92355 -3.9986,12.83785 -0.45661,14.91269 2.29439,1.34403 2.81293,3.41045 2.81293,11.21023 v 9.56245 h 8.44502 8.445 l -0.52727,-12.58563 c -0.38763,-9.25566 -1.19494,-13.2794 -3.05127,-15.20781 -2.20956,-2.29527 -2.25652,-2.96441 -0.37734,-5.36823 3.59943,-4.6035 2.7448,-15.46872 -1.59755,-20.30936 -6.49092,-7.23578 -19.44564,-8.26912 -26.78907,-2.13679 -5.99912,5.00976 -7.17066,10.51703 -7.17066,33.70879 v 22.04688 l 7.91791,-0.42775 7.91797,-0.42775 z m 39.96666,-8.91656 v -29.70824 h -7.54085 -7.54087 v 29.70824 29.70822 h 7.54087 7.54085 z m 19.60631,9.19538 c 0,-16.93234 0.38022,-20.51284 2.17673,-20.51284 3.45939,0 6.87234,5.81035 6.87234,11.69975 0,3.95509 -1.01475,6.29363 -3.77046,8.68922 -3.24613,2.82189 -3.77044,4.50596 -3.77044,12.11053 v 8.83287 l 4.05551,-0.95472 c 8.64081,-2.0343 18.56711,-12.62419 18.56711,-19.80845 0,-3.91562 2.6164,-2.2858 3.57916,2.22947 1.89935,8.90822 16.02209,18.19195 27.71547,18.21912 3.14297,0.005 3.39343,-0.61855 3.39343,-8.48015 v -8.48808 h -4.6237 c -5.12835,0 -10.4581,-2.18825 -10.4581,-4.29382 0,-0.75069 3.39338,-1.36492 7.5409,-1.36492 h 7.5409 v -7.07336 -7.07342 h -7.5409 c -4.14752,0 -7.5409,-0.53413 -7.5409,-1.18756 0,-1.70645 7.03826,-4.47113 11.38233,-4.47113 3.52373,0 3.69947,-0.41064 3.69947,-8.64867 v -8.64876 l -7.14398,1.0049 c -3.92922,0.55269 -8.93843,1.87533 -11.13168,2.93918 -5.46141,2.64913 -11.86758,10.07507 -12.91033,14.96552 -1.11449,5.22705 -2.88666,5.16443 -4.01811,-0.14227 -1.27478,-5.97886 -10.77301,-15.28125 -17.35354,-16.9957 -3.02892,-0.78921 -9.40952,-1.43842 -14.17917,-1.44274 l -8.67198,-0.005 v 28.76514 c 0,15.82079 0.4526,29.18946 1.00545,29.70821 0.55292,0.51865 4.28575,0.94314 8.29498,0.94314 h 7.28951 z m 101.80182,-0.70732 v -20.51284 l 4.9016,-0.44324 4.90152,-0.44327 v -8.39843 -8.39842 h -18.09809 -18.0981 v 8.48808 8.48805 h 5.27859 5.27867 v 21.29407 21.29411 l 7.9179,-0.42775 7.91791,-0.42773 z m 95.45766,11.10133 0.44234,-9.41158 6.76235,-0.50419 c 6.63994,-0.49512 6.81851,-0.39566 9.86697,5.51128 3.57317,6.92359 8.60332,10.71388 17.17343,12.94045 11.99725,3.11697 12.81951,2.67412 12.81951,-6.90492 v -8.48806 h -4.62365 c -4.99692,0 -10.4581,-2.17386 -10.4581,-4.16287 0,-0.67872 3.68296,-1.45208 8.18439,-1.71863 7.70148,-0.45609 8.22892,-0.2759 8.93985,3.05212 1.14231,5.3481 7.17903,12.96222 12.65539,15.96233 2.68645,1.47166 8.11354,2.77931 12.06022,2.90582 l 7.17586,0.23 v -7.75726 -7.75732 l -5.7581,-0.87736 c -3.16693,-0.48227 -6.8754,-1.92544 -8.2411,-3.20644 -2.30521,-2.16235 -1.93134,-2.32913 5.22261,-2.32913 h 7.70565 l 0.56659,-5.57146 c 0.81834,-8.04922 0.31295,-8.57529 -8.23939,-8.57529 -7.18434,0 -7.56058,-0.16691 -5.25536,-2.32913 1.3657,-1.281 5.07421,-2.72623 8.24113,-3.21171 l 5.75809,-0.88261 -0.53012,-7.75202 c -0.29127,-4.26362 -0.79625,-8.01339 -1.12185,-8.33281 -1.33596,-1.31061 -17.29809,3.07494 -20.9209,5.74798 -3.95086,2.9151 -9.85489,12.29031 -9.85112,15.64291 0.001,1.32762 -2.25837,1.6927 -8.29493,1.34013 -4.5634,-0.26627 -8.29701,-1.03988 -8.29701,-1.71856 0,-1.98902 5.46118,-4.16287 10.45807,-4.16287 h 4.62366 v -8.6804 -8.68034 l -6.91096,0.88853 c -13.5518,1.74232 -22.65275,8.80878 -25.6181,19.89133 -0.86859,3.24605 -1.72931,3.65423 -7.70597,3.65423 -6.1147,0 -6.6842,-0.29034 -6.24622,-3.18301 0.38592,-2.54708 1.68726,-3.32433 6.51465,-3.89034 l 6.03268,-0.7074 v -7.78067 -7.78076 l -7.1408,-0.43042 c -9.30842,-0.56093 -16.80428,2.78864 -19.88979,8.88781 -1.86123,3.67903 -2.37881,9.67406 -2.37881,27.55084 v 22.84866 l 7.91792,-0.42776 7.9179,-0.42772 z m 111.61463,1.27708 0.45261,-8.13437 h -5.30078 c -3.69727,0 -5.77315,-0.82779 -6.86207,-2.73641 -0.85868,-1.50494 -1.56129,-11.05405 -1.56129,-21.22017 v -18.48376 h -7.54084 -7.54088 v 23.41241 c 0,25.69016 1.07808,29.88576 8.69096,33.824 2.47586,1.28078 7.14719,2.00303 11.66942,1.80423 l 7.54085,-0.33151 z M 25.97251,134.51615 c -0.8865,-3.78571 -0.64287,-4.13897 2.56088,-3.71352 2.83088,0.37587 3.45801,1.22271 3.129,4.22498 -0.40984,3.73786 -0.36538,3.7545 9.80311,3.68245 11.65412,-0.0824 13.29485,-0.56424 10.94978,-3.21465 -0.92045,-1.04032 -1.46241,-4.55506 -1.20432,-7.81051 l 0.46912,-5.91899 6.03268,8.19415 c 3.31799,4.50678 6.71142,8.3945 7.5409,8.63933 0.95491,0.28178 1.50817,-6.62961 1.50817,-18.84024 0,-16.95058 -0.32492,-19.47636 -2.68222,-20.862032 -3.44146,-2.02287 -6.10372,1.285622 -4.00064,4.971622 6.3906,11.20065 3.47138,14.52804 -3.12592,3.56301 -2.5431,-4.22677 -5.95749,-8.012092 -7.58768,-8.411992 -2.83757,-0.69604 -2.96389,0.0811 -2.96389,18.238682 0,11.10058 -0.59715,18.96569 -1.43986,18.96569 -0.79194,0 -1.77117,-2.06894 -2.1761,-4.59766 -0.40473,-2.52878 -1.5271,-9.67085 -2.49355,-15.87129 -2.59713,-16.662432 -3.22449,-17.727352 -10.44311,-17.727352 -4.27964,0 -6.07,0.6013 -6.07,2.038532 0,1.1212 0.55462,2.35985 1.2318,2.75263 0.67747,0.39299 0.10193,6.00064 -1.2793,12.46193 -4.96553,23.23079 -4.9705,23.41889 -0.61588,23.41889 3.46593,0 3.74192,-0.40423 2.85692,-4.18366 z m 0.64909,-8.54843 c -0.27704,-2.81853 0.19322,-7.14277 1.19104,-10.96376 l 0.92382,-3.53671 1.14131,3.53671 c 2.05744,6.37555 1.64792,12.73209 -0.82026,12.73209 -1.24424,0 -2.34039,-0.79575 -2.43591,-1.76833 z m 61.15594,11.70636 c 13.42588,-4.78808 13.31604,-33.51795 -0.14644,-38.319082 -2.20797,-0.78743 -6.78875,-1.04156 -10.17952,-0.56466 l -6.16503,0.86697 0.33232,19.344402 c 0.1831,10.63947 0.35227,19.5036 0.37677,19.6981 0.12318,0.97403 12.4144,0.17546 15.7818,-1.02573 z m -5.17977,-19.13341 c 0,-22.234992 2.63672,-22.537692 3.24362,-0.37215 0.28731,10.48467 -0.15099,15.72067 -1.41386,16.90539 -1.43424,1.34533 -1.82976,-2.22858 -1.82976,-16.53303 z m 269.96334,-2.122 V 105.10123 H 246.98885 141.41661 v 11.31744 11.31738 h 105.57224 105.57226 z m 71.09415,6.73561 c 21.43016,-9.32497 32.68495,-31.943332 26.24093,-52.735592 -2.7371,-8.83177 -9.3565,-19.00724 -14.60997,-22.45877 -4.04856,-2.65993 -3.58121,-3.67234 7.84578,-16.99633 13.75868,-16.0427 24.40647,-23.8296304 38.63761,-28.2563704 14.33581,-4.45925 42.106,-9.89054 45.08605,-8.81787 1.18906,0.42775 2.16196,2.25068 2.16196,4.05044 0,2.66634003 -1.28236,3.62743 -6.92556,5.19037 -16.99904,4.70809 -34.46921,20.7500004 -41.37504,37.9925804 -12.02047,30.01291 1.95795,64.354442 32.02097,78.667682 28.00367,13.33277 57.40879,9.14187 79.2721,-11.29807 13.33673,-12.468502 18.65028,-23.512782 19.6123,-40.764232 1.10703,-19.85202 -3.79148,-33.42942 -17.05223,-47.26414 C 582.41319,7.7807076 565.75445,0.50123763 547.19799,-0.23654237 c -10.83875,-0.43094 -11.41583,-0.62337 -11.85093,-3.95186003 -0.40243,-3.07802 0.25081,-3.60511 5.42881,-4.38177 11.32245,-1.6983296 17.50744,-10.0456596 11.57002,-15.6150196 -2.64358,-2.47963 -11.44587,-4.34833 -15.63837,-3.31998 -4.49249,1.10198 -5.91292,-0.62188 -7.03186,-8.53427 -0.99509,-7.03625 -0.87834,-7.40054 2.37167,-7.40054 3.2616,0 3.37298,-0.36143 2.43028,-7.88509 -1.37402,-10.9666 -4.43275,-17.03346 -10.27078,-20.37222 -4.86368,-2.78142 -13.31051,-3.93066 -13.26422,-1.80461 0.0513,2.30684 2.43569,4.20719 6.43346,5.12519 5.14129,1.18058 10.12006,8.39738 10.12776,14.68032 0.004,4.14614 -0.4298,4.59773 -4.42991,4.59773 -5.72886,0 -7.38402,2.5983 -3.50304,5.49914 2.0194,1.50942 3.37639,4.72403 4.00956,9.49826 l 0.95707,7.21675 -38.10361,0.82511 c -40.54858,0.87812 -48.73035,2.01372 -62.84471,8.72264 -15.71989,7.4720096 -29.00365,29.16537 -30.5993,49.97099 -0.31751,4.13854 -1.24642,5.01464 -8.70375,8.20838 -17.36157,7.43545 -27.2489,20.96574 -28.34909,38.79441 -0.52956,8.58373 -0.0127,12.21523 2.72525,19.01455 5.28295,13.136132 18.63079,24.113762 33.86547,27.851892 7.99515,1.96178 22.51165,0.39993 31.12749,-3.34918 z m -31.39266,-3.11337 c -6.76905,-1.98531 -17.07886,-7.46869 -17.07886,-9.08354 0,-0.54258 4.24739,-4.93515 9.43854,-9.76123 l 9.43855,-8.774722 7.52848,0.83983 7.5284,0.83982 7.37497,11.306582 c 8.25183,12.65084 8.23069,12.73013 -4.05579,15.20923 -9.06718,1.82952 -12.2861,1.73767 -20.17429,-0.57597 z m 139.94012,0.50743 c -3.63985,-0.67061 -6.88144,-1.46642 -7.20344,-1.76841 -0.65347,-0.61297 15.84716,-40.712412 17.37549,-42.225622 0.53354,-0.52826 2.71769,-1.36519 4.85314,-1.85936 3.48869,-0.80729 5.54133,0.85379 20.23054,16.3718 18.35599,19.391742 18.10028,17.732392 3.78807,24.581672 -12.10441,5.79272 -25.24585,7.4419 -39.0438,4.89992 z m -16.84913,-5.55416 c -14.61603,-7.10816 -29.03061,-24.998672 -30.9998,-38.475142 l -0.91038,-6.2299 23.85319,-1.62239 c 29.79432,-2.02638 32.16702,-1.02953 23.10247,9.70591 -4.0159,4.75615 -5.47515,5.5086 -10.6829,5.5086 -4.15185,0 -5.83768,0.5511 -5.4092,1.76836 0.38534,1.09494 4.16644,1.92876 9.92882,2.18952 5.11849,0.23152 9.30636,0.70471 9.30636,1.05126 0,1.17623 -10.99852,26.815442 -11.91168,27.768022 -0.49934,0.52079 -3.3239,-0.22824 -6.27688,-1.66424 z m -94.56235,-8.01814 C 411.24862,93.730098 410.81947,92.675178 413.4445,88.917118 l 2.27894,-3.26243 12.53296,2.71241 c 17.72712,3.83648 16.61764,3.07242 13.62823,9.38535 -2.739,5.784092 -6.58868,10.581412 -11.94257,14.882332 -3.18475,2.55836 -3.26827,2.50671 -9.15082,-5.65874 z m -54.53885,-7.759262 c -3.44489,-6.4666 -4.64223,-10.66249 -4.64223,-16.2688 0,-8.6947 -0.3728,-8.55783 14.61113,-5.36681 15.20868,3.239 15.11612,3.19285 16.1515,8.04894 0.87342,4.09631 0.12493,5.28325 -8.44885,13.39757 -5.17394,4.896722 -10.22213,8.903142 -11.21818,8.903142 -0.99611,0 -3.90013,-3.92136 -6.45337,-8.714042 z m 203.37539,-9.59335 c -8.63464,-9.3427 -15.85188,-17.48055 -16.03828,-18.08416 -0.1864,-0.60358 0.59533,-2.25523 1.73724,-3.67026 1.63179,-2.02222 5.41376,-2.8436 17.67002,-3.83763 8.57657,-0.69562 19.58905,-1.60612 24.47218,-2.02339 l 8.87839,-0.75866 -0.76725,8.96566 c -0.92549,10.81482 -7.68335,24.99431 -15.13207,31.750442 l -5.12088,4.64472 z m -139.62611,-3.35653 c -13.35628,-2.68907 -13.83425,-2.92062 -14.73395,-7.14049 -0.84489,-3.96242 0.0227,-5.25449 9.48197,-14.12768 l 10.41192,-9.76644 3.9891,6.38502 c 4.86197,7.78196 8.08271,20.90052 6.07161,24.73072 -1.39221,2.65158 -1.65435,2.6502 -15.22065,-0.0813 z m 103.5504,-3.44664 c 0.006,-0.58355 1.35836,-2.97081 3.00645,-5.30507 3.2787,-4.64376 4.04816,-2.96465 1.26607,2.76283 -1.63111,3.35801 -4.29497,4.94306 -4.27252,2.54224 z m -156.7822,-7.64195 c -7.00786,-1.48722 -13.06791,-3.01014 -13.4668,-3.38438 -1.9936,-1.86993 11.51051,-20.45028 14.86314,-20.45028 0.63897,0 4.72521,5.09131 9.0805,11.31398 6.56708,9.38274 7.59778,11.67679 6.03822,13.43949 -1.03437,1.16896 -2.30647,2.04888 -2.82706,1.95533 -0.52044,-0.0935 -6.68013,-1.38691 -13.688,-2.87414 z m 24.96423,-7.21215 c -0.52158,-1.75066 -1.3802,-8.11673 -1.90763,-14.14682 l -0.95902,-10.96376 h 5.70426 c 6.17607,0 17.36547,2.70508 17.36547,4.19822 0,0.50635 -3.1443,6.13521 -6.98737,12.50814 -7.234,11.99621 -11.3627,14.62176 -13.21571,8.40422 z m -11.55446,-5.65874 c -2.67803,-4.08487 -5.84003,-8.81893 -7.02676,-10.52008 -2.01376,-2.88679 -1.83915,-3.24755 2.61766,-5.40938 2.62642,-1.27398 5.10799,-2.00423 5.51459,-1.62281 0.40643,0.38122 1.32358,5.05787 2.03764,10.39218 0.71406,5.33424 1.74825,10.79857 2.2982,12.14295 1.92484,4.70513 -0.61446,2.37976 -5.44133,-4.98286 z m 92.52183,-2.76126 c 0.4982,-5.00313 2.30989,-12.55589 4.02628,-16.78391 3.36499,-8.28935 12.98913,-21.59029 15.09678,-20.86436 0.71047,0.24483 8.3819,8.01455 17.04767,17.26637 14.96933,15.98167 15.67621,17.01966 14.15916,20.78969 -1.80388,4.48261 -3.58695,4.91416 -25.88229,6.26422 -7.46542,0.45236 -16.22399,1.18251 -19.46335,1.62324 l -5.88984,0.80134 z m -61.73403,1.70027 c 2.2502,-3.50136 4.66224,-7.26016 5.36018,-8.35293 1.29868,-2.03358 6.85875,-1.11184 5.91515,0.98059 -0.27646,0.61281 -3.84689,3.95466 -7.9345,7.42629 l -7.43208,6.31207 z m 134.60715,-2.01323 c -0.78001,-2.91503 0.0735,-5.18554 3.75978,-10.00013 3.91998,-5.12007 5.74027,-6.30507 10.22575,-6.65686 3.6423,-0.28551 5.45685,-1.13358 5.45685,-2.54994 0,-1.56251 -2.08781,-2.2348 -7.91791,-2.54964 -4.35483,-0.23528 -7.9179,-0.92119 -7.9179,-1.52442 0,-0.60329 1.77458,-5.18539 3.9435,-10.18253 2.16898,-4.99707 4.54407,-10.55883 5.27809,-12.35941 l 1.33459,-3.27386 6.14577,3.23999 c 13.31069,7.01727 26.97114,25.71332 29.39611,40.23226 l 0.96903,5.80181 -17.12377,0.98192 c -9.41814,0.54008 -20.59267,1.34874 -24.8323,1.79701 -7.39144,0.78155 -7.75005,0.65997 -8.71759,-2.9562 z m -35.22895,-22.07533 c -8.50234,-9.24854 -15.4588,-17.40061 -15.4588,-18.11575 0,-1.59567 19.90996,-11.5534604 23.10037,-11.5534604 2.59779,0 2.84092,0.87806 7.0509,25.4642104 3.37372,19.70253 3.51388,21.263 1.89742,21.12033 -0.62211,-0.055 -8.08754,-7.66679 -16.58989,-16.91533 z m 24.75206,14.53949 c -0.3785,-0.58356 -2.1244,-9.65519 -3.88007,-20.15917 -1.75572,-10.50395 -3.53514,-20.53053 -3.95439,-22.2811604 -0.72768,-3.03909 -0.3346,-3.18272 8.69262,-3.17517 8.39763,0.005 20.76613,2.0761 20.76613,3.47394 0,2.7750304 -11.23079,27.0838504 -13.10758,28.3711704 -1.38874,0.95246 -2.06724,2.66056 -1.55462,3.91363 1.97831,4.83576 -4.38059,13.83847 -6.96209,9.85676 z m 9.50495,-5.77991 c 0.9936,-1.81729 2.22017,-2.9162 2.72571,-2.442 0.50561,0.47427 -0.30723,1.96111 -1.80655,3.30423 -2.60573,2.33451 -2.64621,2.29655 -0.91916,-0.86223 z m -135.68179,-6.59856 c -2.90324,-1.04868 -8.58979,-1.95517 -12.63675,-2.01436 l -7.35816,-0.10734 0.98197,-6.94344 c 2.2103,-15.62909 10.85904,-31.6877704 20.93947,-38.8795804 12.86574,-9.1789296 32.07817,-12.0786496 80.47016,-12.1452896 23.92296,-0.0321 24.34671,0.0226 25.21251,3.12512 0.48452,1.73729 0.39389,3.55438 -0.20121,4.03817 -0.59499,0.48388 -7.52921,2.00265 -15.40944,3.37541 -16.32112,2.8430596 -35.6992,8.2447196 -44.32563,12.3558396 -7.14743,3.40622 -25.12268,20.1968404 -33.34539,31.1477604 -3.31796,4.41882 -6.7114,8.01636 -7.54088,7.99449 -0.82951,-0.0226 -3.88357,-0.89776 -6.78678,-1.9465 z m 114.10292,-56.17167 c -0.47882,-1.7167 -0.7274,-3.24625 -0.55292,-3.3991 0.52498,-0.45984 7.57841,-0.87678 12.00557,-0.7096 6.17667,0.23303 5.18798,3.99659 -1.50815,5.74087 -7.93758,2.06774 -8.95979,1.89994 -9.9445,-1.63217 z m -380.7934,95.4507 c 1.38531,-1.11315 3.33078,-5.19903 4.32329,-9.07968 4.04419,-15.81305 -4.02529,-31.29396 -14.37097,-27.57005 -10.77894,3.87985 -11.14591,35.2132 -0.45602,38.94015 3.86257,1.3467 6.765,0.7138 10.5037,-2.29042 z m -9.86993,-6.78767 c -1.4084,-3.4427 -1.09548,-18.05149 0.43547,-20.31906 4.19404,-6.21289 9.31321,6.94871 6.56789,16.88636 -1.44944,5.24692 -5.45718,7.2114 -7.00309,3.4327 z M 26.79526,61.953768 V 42.855578 H 23.02483 19.2544 v 19.09819 19.09813 h 3.77043 3.77043 z m 16.89931,13.08573 0.4828,-6.01237 2.10486,6.01237 c 1.6803,4.7997 2.81728,6.0124 5.63658,6.0124 4.13806,0 4.27948,-0.80513 1.31173,-7.46762 -1.85354,-4.16111 -1.88546,-5.24428 -0.19322,-6.56146 4.77101,-3.71417 3.6894,-20.17354 -1.56235,-23.77568 -1.44843,-0.99339 -5.21849,-1.80622 -8.37793,-1.80622 h -5.7444 v 19.80551 c 0,18.66697 0.16818,19.80547 2.92961,19.80547 2.36545,0 3.02264,-1.15785 3.41252,-6.0124 z m -0.30951,-18.5087 c 0,-6.95731 1.08434,-8.69289 4.0087,-6.41631 3.59821,2.80108 2.11627,12.5466 -1.90778,12.5466 -1.47254,0 -2.10092,-1.83351 -2.10092,-6.13029 z m 22.62262,5.42297 v -19.09819 h -3.77043 -3.77039 v 19.09819 19.09813 h 3.77039 3.77043 z m 18.9955,16.12027 c 2.42144,-2.5098 2.87307,-5.19796 2.87307,-17.10114 0,-13.13589 -0.24913,-14.3123 -3.56046,-16.82759 -2.14163,-1.62666 -5.89797,-2.70439 -9.42613,-2.70439 h -5.86561 v 19.80551 19.80547 h 6.55307 c 4.74662,0 7.34505,-0.8209 9.42606,-2.97786 z m -9.94645,-16.12027 c 0,-10.88826 0.29017,-12.17984 2.63938,-11.75545 2.25039,0.40636 2.63931,2.13857 2.63931,11.75545 0,9.61684 -0.38878,11.34892 -2.63931,11.75544 -2.34934,0.42454 -2.63938,-0.8672 -2.63938,-11.75544 z m 30.16355,14.8541 c 0,-3.58382 -0.58649,-4.24404 -3.77045,-4.24404 -3.01632,0 -3.77045,-0.70734 -3.77045,-3.5367 0,-2.82932 0.75413,-3.53666 3.77045,-3.53666 5.18368,0 5.52549,-6.64282 0.37736,-7.32865 -2.42967,-0.32349 -3.52894,-1.55697 -3.87061,-4.34248 -0.41099,-3.34972 0.0605,-3.89034 3.39337,-3.89034 3.12326,0 3.87066,-0.68294 3.87066,-3.53671 0,-3.2808 -0.52326,-3.53671 -7.23227,-3.53671 h -7.23225 l 0.31239,18.7445 c 0.17147,10.30946 0.37221,18.90366 0.44576,19.09817 0.0728,0.19456 3.18707,0.35342 6.9198,0.35342 6.53543,0 6.7868,-0.1571 6.7868,-4.24401 z m 22.62263,-11.3174 c 0,-14.61835 0.1831,-15.56147 3.01637,-15.56147 2.21196,0 3.0163,-0.94313 3.0163,-3.53671 0,-3.40971 -0.35169,-3.53671 -9.80311,-3.53671 -9.45121,0 -9.80314,0.12669 -9.80314,3.53671 0,2.59358 0.80434,3.53671 3.01637,3.53671 2.8335,0 3.01631,0.94312 3.01631,15.56147 v 15.56143 h 3.77046 3.77044 z m 46.75341,7.78068 c 0,-7.35629 0.20587,-7.78068 3.77047,-7.78068 3.01636,0 3.77043,-0.70738 3.77043,-3.5367 0,-2.82936 -0.75407,-3.5367 -3.77043,-3.5367 -3.18392,0 -3.77047,-0.66018 -3.77047,-4.24403 0,-3.58387 0.58655,-4.24404 3.77047,-4.24404 3.01636,0 3.77043,-0.70733 3.77043,-3.53671 0,-3.30091 -0.50275,-3.53671 -7.5409,-3.53671 h -7.54082 v 19.09819 19.09813 h 3.77043 c 3.56478,0 3.77039,-0.42453 3.77039,-7.78075 z m 23.85399,3.89041 c -0.34143,-2.78555 -1.44095,-4.01878 -3.87064,-4.34242 -2.42476,-0.32296 -3.39341,-1.40546 -3.39341,-3.79201 0,-2.38649 0.96865,-3.46891 3.39341,-3.79197 4.86732,-0.6484 5.5587,-6.43547 0.84373,-7.06233 -2.52429,-0.33578 -3.61437,-1.53401 -3.96027,-4.35349 -0.41098,-3.34972 0.0605,-3.89034 3.39345,-3.89034 3.12319,0 3.87058,-0.68294 3.87058,-3.53671 0,-3.30091 -0.50275,-3.53671 -7.5409,-3.53671 h -7.5409 v 19.09819 19.09813 h 7.64106 c 7.446,0 7.62892,-0.0996 7.16389,-3.89034 z m 16.11268,-0.35397 c 0,-2.59059 -0.90769,-3.65759 -3.39338,-3.98872 -4.57109,-0.609 -4.91681,-7.32867 -0.37678,-7.32867 2.21201,0 3.01636,-0.94311 3.01636,-3.53668 0,-2.59361 -0.80435,-3.53672 -3.01636,-3.53672 -2.34603,0 -3.01637,-0.94313 -3.01637,-4.24404 0,-3.58386 0.58655,-4.24404 3.77044,-4.24404 3.01637,0 3.77044,-0.70732 3.77044,-3.53668 0,-3.30093 -0.50276,-3.53672 -7.54088,-3.53672 h -7.54085 v 19.17567 19.17571 l 7.16384,-0.43095 c 6.51336,-0.39194 7.16382,-0.7523 7.16382,-3.96788 z m 17.06715,0.35397 c -0.34142,-2.78555 -1.44094,-4.01878 -3.87059,-4.34242 -3.2714,-0.43577 -3.39345,-0.98262 -3.39345,-15.20777 v -14.75579 h -3.77043 -3.77039 v 19.09819 19.09813 h 7.64105 c 7.44593,0 7.62883,-0.0996 7.16381,-3.89034 z m 16.86683,-3.89041 c 0,-7.35629 0.20586,-7.78068 3.77044,-7.78068 5.18364,0 5.52541,-6.64282 0.37678,-7.32865 -2.42972,-0.32349 -3.52894,-1.55697 -3.87061,-4.34248 -0.41098,-3.34972 0.0605,-3.89034 3.3934,-3.89034 3.12319,0 3.87059,-0.68294 3.87059,-3.53671 0,-3.30091 -0.50276,-3.53671 -7.5409,-3.53671 h -7.54082 v 19.09819 19.09813 h 3.77038 c 3.56477,0 3.77044,-0.42453 3.77044,-7.78075 z m 16.70897,1.76835 0.11911,-6.01237 2.26892,6.01237 c 1.82182,4.82775 2.987,6.0124 5.91361,6.0124 4.24237,0 4.50719,-1.40553 1.34553,-7.14046 -2.07995,-3.77288 -2.06272,-4.50919 0.18057,-7.72052 3.45627,-4.9479 2.34775,-20.05975 -1.67372,-22.81807 -3.47924,-2.38635 -12.22282,-2.53386 -13.73959,-0.23202 -0.61606,0.93508 -1.35698,9.84756 -1.64649,19.80552 l -0.52612,18.10538 h 3.81976 c 3.46975,0 3.83067,-0.55097 3.93881,-6.01237 z m -0.11913,-18.66095 c 0,-7.12068 2.05071,-9.37074 4.54927,-4.99153 2.09813,3.67733 0.47653,11.27407 -2.40686,11.27407 -1.52945,0 -2.14241,-1.79738 -2.14241,-6.28254 z m 28.37847,20.78301 c -0.34146,-2.78555 -1.4409,-4.01878 -3.87061,-4.34242 -5.14836,-0.68589 -4.80663,-7.32867 0.37677,-7.32867 5.1837,0 5.5255,-6.64282 0.37679,-7.32865 -2.42964,-0.32349 -3.52893,-1.55697 -3.87059,-4.34248 -0.411,-3.34972 0.0605,-3.89034 3.39337,-3.89034 3.12325,0 3.8706,-0.68294 3.8706,-3.53671 0,-3.27609 -0.52783,-3.53664 -7.16381,-3.53654 l -7.16384,1.6e-4 0.22863,14.50029 c 0.41838,26.52079 -0.46513,23.6957 7.41229,23.6957 6.6233,0 6.86867,-0.14906 6.40977,-3.89034 z m 16.8668,-0.35397 c 0,-3.58379 -0.5865,-4.24402 -3.77039,-4.24402 -5.18372,0 -5.52549,-6.64277 -0.37736,-7.32866 4.86732,-0.64843 5.55865,-6.4355 0.84368,-7.06236 -2.52427,-0.33578 -3.61438,-1.53398 -3.9602,-4.35348 -0.41098,-3.34972 0.0605,-3.89035 3.39337,-3.89035 3.12319,0 3.87062,-0.68294 3.87062,-3.53668 0,-3.30093 -0.50276,-3.53672 -7.5409,-3.53672 h -7.54085 v 19.0982 19.09811 h 7.54085 c 7.37329,0 7.5409,-0.0941 7.5409,-4.24404 z m -89.82195,-44.16976 c 3.16252,-4.23521 2.92654,-12.69127 -0.65305,-23.4018204 -2.79568,-8.36500997 -2.82178,-9.13824997 -0.46458,-13.77533 2.94037,-5.7838196 1.70653,-7.8692296 -2.52878,-4.27397 -4.60479,3.90894 -5.11313,10.22718 -1.65301,20.5457204 3.8759,11.55824 3.90795,15.87083 0.14138,19.06797 -1.63943,1.39166 -2.61735,3.08183 -2.17325,3.75593 1.45091,2.20211 4.93465,1.29045 7.33078,-1.9185 z M 23.47466,25.487358 c 0.35854,-6.3313 1.02996,-8.12163 3.30017,-8.79753 1.56768,-0.46677 3.63809,-3.08772 4.60104,-5.82455 3.40916,-9.6894904 -1.7564,-20.3530204 -9.85934,-20.3530204 H 17.74607 V 11.496618 c 0,11.54143 0.46684,21.42207 1.03688,21.95703 2.5222,2.36586 4.27532,-0.61082 4.69171,-7.96629 z m 0.0691,-20.6814504 c -0.32092,-5.33827997 0.0577,-8.46214 0.9891,-8.17352 2.00744,0.62171 2.84371,13.7058004 0.98733,15.4471504 -0.93774,0.8796 -1.64244,-1.71386 -1.97643,-7.2736304 z M 52.14812,28.354878 c 0.36652,-4.15599 1.10167,-5.30502 3.39338,-5.30502 1.87828,0 2.92535,0.97125 2.92535,2.71364 0,4.22659 1.62756,7.1891 3.94959,7.1891 1.59869,0 1.90359,-1.30222 1.24236,-5.30507 -0.48224,-2.91774 -1.67774,-12.62597 -2.65716,-21.5738004 -1.35885,-12.4146 -2.29344,-16.2687996 -3.94497,-16.2687996 -2.28424,0 -6.37418,15.0837196 -8.3431,30.76925 -0.92963,7.40631 -1.34876,8.13438 -4.68292,8.13438 -3.52244,0 -3.66192,-0.37107 -3.66192,-9.73779 0,-8.54795 0.36882,-9.8281204 3.01632,-10.4776104 4.1914,-1.02812 3.76778,-3.6362 -0.85863,-5.28607 -4.97302,-1.77356 -4.63566,-7.51382 0.48166,-8.19555 6.15132,-0.81944 3.99273,-4.49928 -2.63935,-4.49928 H 34.33605 V 11.614538 c 0,15.54591 0.49649,21.29618 1.88524,21.83879 1.03685,0.40528 4.93925,0.61723 8.67198,0.47159 6.69555,-0.26148 6.79307,-0.33631 7.25491,-5.56999 z m 1.97262,-12.73212 c 0.0982,-1.75065 0.69651,-5.09283 1.32974,-7.4270504 0.98407,-3.6277 1.17718,-3.16541 1.32971,3.1830104 0.0992,4.11989 -0.49304,7.42711 -1.32971,7.42711 -0.82949,0 -1.4279,-1.43236 -1.32974,-3.18307 z m 23.07455,17.51766 c 0.4469,-0.67807 3.4705,-0.56027 6.76007,0.26308 4.57629,1.14576 6.50129,1.06236 8.3297,-0.36092 3.61528,-2.8144 2.86262,-4.33413 -2.14654,-4.33413 h -4.5245 v -9.80434 c 0,-9.0904304 0.24734,-9.8372804 3.39337,-10.2564304 1.86636,-0.2486 3.39338,-1.40696 3.39338,-2.57405 0,-1.1671 -1.52702,-2.32549 -3.39338,-2.57412 -2.63748,-0.35128 -3.39337,-1.37558 -3.39337,-4.59769 0,-3.47889 0.60637,-4.14565 3.77043,-4.14565 2.34603,0 3.77039,-0.80163 3.77039,-2.12203 0,-1.53257 -1.67572,-2.12198 -6.03268,-2.12198 h -6.03268 v 20.4044004 20.4044 l -4.52337,-2.11665 c -5.48583,-2.56706 -6.55135,-6.04424 -5.77933,-18.85972 0.51245,-8.5070304 1.17846,-10.40858037 4.93295,-14.0845004 3.74286,-3.66456 3.9934,-4.3746 1.81957,-5.15706 -8.20919,-2.9548696 -15.63657,17.58386 -11.55282,31.9467404 2.55334,8.98045 8.44535,14.28463 11.20881,10.09055 z m 54.83441,-20.23073 c -0.30326,-15.6226604 -0.92902,-21.6174304 -2.30158,-22.0454204 -1.45435,-0.45339 -1.88522,4.45093 -1.88522,21.4575904 0,18.82002 0.3369,22.04539 2.30156,22.04539 1.98043,0 2.24343,-2.99388 1.88524,-21.45756 z m 12.06758,1.33728 c 0.37964,-17.3881004 0.6831,-19.2459704 3.24899,-19.8753404 2.36289,-0.57958 2.9983,0.35555 3.84666,5.66229003 0.55918,3.49605997 0.82585,12.49217037 0.59318,19.99125037 -0.34659,11.16053 -0.0286,13.63475 1.76744,13.63475 1.72618,0 2.28254,-2.77408 2.62426,-13.08574 0.34315,-10.35404 0.89405,-13.0857904 2.6393,-13.0857904 1.77201,0 2.20562,2.50301 2.20562,12.7321204 0,10.37429 0.41897,12.73209 2.2623,12.73209 1.89851,0 2.26223,-3.05227 2.26223,-18.98249 0,-10.4403304 0.41212,-19.9893904 0.91546,-21.2201704 0.65627,-1.60413 0.0177,-2.23768 -2.26224,-2.23768 -2.7607,0 -3.17775,0.83537 -3.17775,6.36602 0,4.71563 -0.5865,6.36607 -2.26222,6.36607 -1.66548,0 -2.26229,-1.62942 -2.26229,-6.17679 v -6.17682 l -10.80683,0.16415 c -6.50322,0.099 -11.03231,0.79689 -11.37295,1.75265 -0.31123,0.87355 0.72363,1.90459 2.30003,2.29132 2.66413,0.65349 2.82175,1.92549 2.23543,18.0415804 -0.66277,18.21566 -0.15225,21.83845 2.94045,20.87457 1.3552,-0.42241 2.00189,-5.97379 2.30293,-19.76829 z m 39.62703,3.73801 c 0.4583,-8.4964004 0.97754,-13.8564604 1.15424,-11.9112504 0.33974,3.74332 2.69664,8.1546404 3.75699,7.0324004 0.34658,-0.36627 1.34757,-2.5762 2.22519,-4.9104204 1.32233,-3.51723 1.61601,-1.76076 1.71462,10.2564404 0.0974,11.89654 0.52555,14.50045 2.38136,14.50045 1.91088,0 2.26225,-3.314 2.26225,-21.33806 0,-15.8427404 -0.46116,-21.1938804 -1.79095,-20.7781204 -0.98505,0.30798 -2.73969,3.22974 -3.89927,6.49281 -2.48391,6.98978 -4.21826,6.63022 -5.62244,-1.16567 -1.11896,-6.2127396 -4.76497,-7.7342196 -5.91482,-2.46829 -1.28879,5.90262003 -2.56894,37.8242204 -1.57716,39.3294404 0.54094,0.82055 1.7691,1.24808 2.72997,0.95007 1.11075,-0.34432 2.05043,-6.16811 2.58002,-15.9898 z m 24.13884,4.00386 c 0.0513,-7.01737 1.24446,-16.5424504 2.75956,-21.99288037 1.49134,-5.36475003 2.07516,-9.96080003 1.32091,-10.39804963 -1.8335,-1.06297 -2.31211,-0.45396 -4.67524,5.9486396 l -2.04072,5.52903 -1.05635,-5.28168 c -0.64487,-3.22446 -1.91083,-5.28164 -3.25026,-5.28164 -2.69316,0 -2.6914,0.25826 0.0683,9.90273003 1.22459,4.27942997 2.23456,13.66935037 2.24442,20.86652037 0.0177,10.68122 0.43376,13.08574 2.28012,13.08574 1.83192,0 2.27883,-2.35472 2.34921,-12.37841 z m 31.28496,9.29748 c 0.34088,-1.68894 -0.74316,-2.50504 -3.75807,-2.82933 -4.17499,-0.44912 -4.23713,-0.59504 -4.23713,-9.95213 0,-8.41777 0.34259,-9.5425204 3.01639,-9.9027304 4.1666,-0.56135 3.80349,-4.54576 -0.4657,-5.11342 -4.8715,-0.64771 -4.15916,-7.8108 0.84299,-8.47717 6.15129,-0.81944 3.9927,-4.49928 -2.6393,-4.49928 h -6.03268 V 11.614538 c 0,22.75208 0.0286,22.8232 8.28261,22.32026 2.87248,-0.17496 4.68623,-1.13742 4.9912,-2.64848 z m 12.99589,2.22223 c 1.31211,-0.47212 2.38563,-1.81449 2.38563,-2.98272 0,-1.53453 -1.00273,-1.88795 -3.61317,-1.27333 -4.98066,1.17255 -5.33225,-0.3251 -4.95324,-21.1004704 0.30951,-16.98319 -0.70079,-21.8268196 -3.64454,-17.46733 -2.08706,3.09083 -1.69421,39.9763104 0.44689,41.9849304 1.97609,1.85359 5.64707,2.18193 9.3782,0.83892 z m 8.10481,-11.78159 c 0.38532,-10.2413 0.80993,-11.7958604 3.39342,-12.4296004 3.87186,-0.94974 3.82135,-4.63835 -0.0638,-4.63835 -2.44185,0 -3.01636,-0.94312 -3.01636,-4.95133997 0,-4.33836003 0.46684,-4.95138003 3.77044,-4.95138003 4.76474,0 5.01925,-3.64334 0.33176,-4.7469 -1.8914,-0.4453996 -5.02406,-0.4208096 -6.96143,0.0545 -3.22254,0.79048 -3.44349,1.40536 -2.59386,7.21969 0.51072,3.49564003 0.92873,13.3225604 0.92873,21.8375904 0,11.75463 0.45374,15.34097 1.88523,14.89647 1.2558,-0.38978 2.03233,-4.49349 2.32578,-12.29066 z m -150.50401,9.17326 c 0,-1.12882 0.77522,-5.4259 1.72272,-9.54908 1.94438,-8.46161 3.3891,-7.06845 5.06217,4.88173 1.49486,10.67718 4.75332,8.69772 5.82206,-3.53671 0.49248,-5.64104 1.33092,-15.1900704 1.86259,-21.2201604 0.80576,-9.13945 0.59565,-10.96374 -1.26277,-10.96374 -2.26184,0 -3.92482,7.93225 -4.30052,20.5128404 l -0.16918,5.65869 -1.50213,-5.30507 c -1.7666,-6.2390704 -5.71569,-7.2106304 -5.75006,-1.4146404 -0.0127,2.1396704 -0.69583,4.8452804 -1.51801,6.0123904 -1.00758,1.43026 -1.17334,-2.37416 -0.50846,-11.6710904 0.96218,-13.45322 0.90672,-13.79312 -2.25243,-13.79312 -2.9029,0 -3.23817,0.77067 -3.23117,7.42704 0.0177,18.0607004 1.95091,35.0133004 3.99009,35.0133004 1.11917,0 2.0348,-0.92356 2.0348,-2.05238 z m -85.96601,-64.43752 c 0,-15.40426 -0.36709,-18.39078 -2.26224,-18.39078 -1.89492,0 -2.2623,2.98652 -2.2623,18.39078 0,15.40431 0.3671,18.39087 2.2623,18.39087 1.89486,0 2.26224,-2.98656 2.26224,-18.39087 z m 19.60626,1.41471 v -16.97613 h 3.77043 c 3.46323,0 3.77047,0.51865 3.77047,6.36602 0,5.42297 -0.4469,6.3661 -3.01637,6.3661 -3.72924,0 -3.73356,-0.16741 0.29697,11.57072 1.85296,5.39649 4.17949,9.64945 5.27861,9.64945 2.6463,0 2.48954,-1.47739 -1.05094,-9.90279 -3.36865,-8.01653 -3.49143,-8.55844 -1.88518,-8.32056 4.46958,0.662 5.03169,-0.4395 4.59646,-9.00921 l -0.44917,-8.84176 -7.91791,-0.42775 -7.91791,-0.42776 v 18.46477 c 0,15.46992 0.3671,18.46473 2.26225,18.46473 1.88522,0 2.26229,-2.82938 2.26229,-16.97613 z m 21.11448,-1.41471 c 0,-15.40426 -0.36766,-18.39078 -2.26225,-18.39078 -1.89491,0 -2.26229,2.98652 -2.26229,18.39078 0,15.40431 0.3671,18.39087 2.26229,18.39087 1.89487,0 2.26225,-2.98656 2.26225,-18.39087 z m 19.86461,16.04954 c 2.29972,-1.95223 2.75802,-4.55345 2.75802,-15.65445 0,-16.8026 -1.04057,-18.78587 -9.85621,-18.78587 h -6.73374 v 18.39078 18.39087 h 5.53694 c 3.04526,0 6.77804,-1.0536 8.29499,-2.34133 z m -9.81011,-1.43117 c -0.55291,-0.51865 -1.00546,-7.56366 -1.00546,-15.65544 v -14.7123 l 4.14748,0.44754 4.1475,0.44754 0.43492,14.02988 c 0.31809,10.27101 -0.0859,14.33963 -1.50814,15.18606 -2.37534,1.41364 -4.87259,1.51668 -6.21608,0.25664 z m 30.66625,2.35777 c 0,-0.77807 -2.03608,-1.41466 -4.52454,-1.41466 -4.42398,0 -4.52452,-0.15711 -4.52452,-7.0734 0,-6.60183 0.2514,-7.07337 3.77045,-7.07337 2.34603,0 3.77043,-0.80169 3.77043,-2.12203 0,-1.32034 -1.4244,-2.12198 -3.77043,-2.12198 -3.46321,0 -3.77045,-0.51865 -3.77045,-6.3661 0,-6.13029 0.16769,-6.36602 4.52452,-6.36602 2.48846,0 4.52454,-0.63664 4.52454,-1.4147 0,-0.77806 -3.05406,-1.41466 -6.78676,-1.41466 H 91.6467 v 18.39078 18.39087 h 6.78682 c 3.7327,0 6.78676,-0.63665 6.78676,-1.41473 z m 22.19762,-14.97091 c 0.18059,-8.4946 0.35056,-15.92212 0.37677,-16.50567 0.0286,-0.58355 1.066,-1.06098 2.31024,-1.06098 1.24423,0 2.26224,-0.5752 2.26224,-1.27816 0,-0.70297 -3.39378,-1.49871 -7.54181,-1.76833 -5.30705,-0.34488 -7.54154,0.0321 -7.54085,1.27814 5.1e-4,0.97259 1.3583,1.76835 3.01728,1.76835 2.84992,0 3.01631,0.94314 3.01631,17.094 0,13.04595 0.44633,16.95469 1.88523,16.50567 1.32679,-0.41386 1.9827,-5.16355 2.21429,-16.03302 z m 25.73201,-2.35885 0.42183,-18.03716 h -8.34006 -8.34002 v 18.46474 18.46474 l 7.91791,-0.42776 7.91791,-0.42773 z m -13.24159,0.35342 v -15.56142 h 4.52452 4.52454 v 15.56142 15.56148 h -4.52454 -4.52452 z m 31.67168,9.90278 v -8.48807 h 4.52452 c 5.67232,0 5.97563,-2.48483 0.37738,-3.08907 -3.79816,-0.41011 -4.18622,-1.01364 -4.60719,-7.16736 -0.4543,-6.64411 -0.40815,-6.7197 4.14744,-6.7197 2.53398,0 4.60719,-0.63664 4.60719,-1.41473 0,-0.77807 -2.71472,-1.41466 -6.03268,-1.41466 h -6.03273 v 18.39081 c 0,11.31744 0.5801,18.39084 1.5082,18.39084 0.83789,0 1.50817,-3.7725 1.50817,-8.48806 z m 18.0981,-9.90278 c 0,-15.40429 -0.36765,-18.39081 -2.26229,-18.39081 -1.89483,0 -2.26223,2.98652 -2.26223,18.39081 0,15.40428 0.36767,18.39084 2.26223,18.39084 1.89493,0 2.26229,-2.98656 2.26229,-18.39084 z m 9.36508,6.7197 0.43835,-11.67106 4.40852,11.67106 c 2.42469,6.41914 4.96971,11.67114 5.65567,11.67114 0.68592,0 1.24714,-8.2759 1.24714,-18.39084 0,-20.38806 -2.62104,-25.67332 -3.33244,-6.71972 l -0.43835,11.67109 -4.5245,-11.6674 c -6.56903,-16.93967 -8.29493,-15.54228 -8.29493,6.71603 0,15.17779 0.38475,18.39084 2.20125,18.39084 1.71626,0 2.29774,-2.57133 2.63929,-11.67114 z m 32.00202,9.44806 c 2.99682,-2.81104 3.46267,-30.13833 0.56032,-32.86095 -0.99543,-0.9337 -4.72815,-1.69762 -8.29497,-1.69762 h -6.48516 v 18.39081 18.39084 h 5.92499 c 3.37542,0 6.94477,-0.95658 8.29497,-2.22308 z m -9.6954,-16.16776 c 0,-15.53271 0.0513,-15.75178 3.39337,-15.30618 3.27304,0.43577 3.39338,0.97896 3.39338,15.30618 0,14.32721 -0.12038,14.87019 -3.39338,15.30621 -3.34481,0.4454 -3.39337,0.22674 -3.39337,-15.30621 z m 243.94732,4.71322 c 17.96575,-0.60265 22.99965,-1.19196 22.99965,-2.69255 0,-3.56249 -5.18671,-4.47362 -29.8195,-5.23854 -20.41532,-0.63393 -24.91567,-0.41063 -26.7701,1.32899 -2.66608,2.50076 -2.68377,2.69287 -0.5869,6.36801 1.32906,2.32945 2.55164,2.69987 6.40976,1.94202 2.62208,-0.5149 15.11723,-1.28361 27.76709,-1.70793 z m -226.11934,-39.90392 c -0.38933,-10.09927 -0.0855,-12.41157 1.5541,-11.81834 1.36475,0.49405 1.85678,-0.14855 1.48923,-1.94459 -0.4412,-2.15627 -1.87087,-2.68211 -7.29101,-2.68211 -5.41773,0 -6.85122,0.52664 -7.29782,2.68211 -0.37566,1.81189 0.11457,2.44076 1.51041,1.93833 1.67565,-0.60311 1.97352,1.63121 1.57583,11.81835 l -0.49077,12.5621 h 4.7169 4.71689 z m 22.89265,-2.01608 v -14.57188 l -9.04906,-0.15611 -9.04905,-0.1561 v 14.72787 14.72788 h 9.04905 9.04906 z m -9.55182,12.21414 c -1.60598,-1.50645 -1.1606,-13.20368 0.50276,-13.20368 0.82951,0 1.50822,3.18306 1.50822,7.07343 0,7.1723 -0.21144,7.81788 -2.01091,6.13025 z m -1.00544,-20.27703 c 0,-2.33426 0.6787,-4.24404 1.5082,-4.24404 0.82951,0 1.50816,1.90978 1.50816,4.24404 0,2.33422 -0.67865,4.24404 -1.50816,4.24404 -0.8295,0 -1.5082,-1.90982 -1.5082,-4.24404 z m 21.58119,8.13571 c -0.28331,-14.29678 -0.34028,-14.50793 -4.03151,-14.93888 l -3.74406,-0.43738 v 14.93755 14.93763 l 4.03146,10e-4 4.03147,0.001 z m 15.68862,10.15459 c 2.24562,-4.4183 0.41614,-11.88836 -4.28459,-17.49378 -1.74107,-2.07616 -2.69795,-4.2135 -2.12645,-4.74962 0.57157,-0.5361 1.70065,0.13424 2.50917,1.48918 1.9575,3.28098 4.33648,3.13282 4.33648,-0.27001 0,-3.07201 -4.27651,-4.88272 -8.19808,-3.47116 -6.2661,2.25545 -6.19788,12.25067 0.13227,19.39948 1.94759,2.1994 3.54107,4.58665 3.54107,5.30507 0,2.01377 -2.43272,1.54832 -4.57754,-0.87588 -2.36227,-2.66981 -5.31367,-0.50261 -3.92805,2.88461 1.54628,3.77972 10.33364,2.23246 12.59553,-2.21779 z m 22.16481,-2.83912 1.41876,-6.25578 1.40818,6.71971 c 1.57919,7.53614 4.99138,9.02361 6.49019,2.82938 0.51758,-2.13973 2.20564,-7.87023 3.75089,-12.73445 2.93834,-9.24956 2.59894,-13.08346 -1.15823,-13.08346 -1.73594,0 -2.03239,1.18181 -1.33082,5.30507 0.49651,2.91777 0.2588,6.23352 -0.52783,7.3684 -1.04507,1.50736 -1.70521,0.12092 -2.45,-5.14542 -0.92377,-6.53208 -1.36782,-7.19048 -4.73133,-7.01468 -3.47871,0.18174 -3.65286,0.56375 -2.77228,6.08092 0.53867,3.374 0.30095,6.25727 -0.55691,6.75441 -0.88927,0.51543 -1.68349,-1.87277 -1.95756,-5.88693 -0.42525,-6.2284 -0.79113,-6.78988 -4.69742,-7.21007 -4.02495,-0.43311 -4.19515,-0.22146 -3.41235,4.24402 2.98913,17.05077 4.23238,23.19107 4.9013,24.20627 1.69397,2.57096 4.28699,-0.27643 5.62529,-6.17739 z m 31.72445,4.03952 c 2.7976,-3.74658 3.13619,-16.31982 0.58109,-21.58007 -2.69551,-5.5492 -8.52236,-6.26855 -12.81944,-1.58265 -4.21826,4.60008 -4.81945,15.58762 -1.21095,22.13306 2.91126,5.28074 9.87677,5.81397 13.4493,1.02966 z m -8.20942,-11.79348 c 0,-7.71192 0.5478,-11.79078 1.50817,-11.23393 0.82948,0.48069 1.50814,5.92958 1.50814,12.10825 0,6.54615 -0.62928,11.23393 -1.50814,11.23393 -0.88799,0 -1.50817,-4.97916 -1.50817,-12.10825 z m 21.64227,10.69357 c -0.54949,-2.57736 -0.27818,-4.24401 0.6916,-4.24401 0.8781,0 1.81129,1.75063 2.07378,3.89033 0.34145,2.78553 1.44089,4.01877 3.87062,4.34248 2.84266,0.37854 3.39337,-0.20688 3.39337,-3.60745 0,-2.23273 -0.81439,-4.82342 -1.80981,-5.75713 -1.40761,-1.32033 -1.40761,-2.07485 0,-3.39524 2.56194,-2.40311 2.25619,-11.75517 -0.45317,-13.86443 -1.24469,-0.96901 -5.31674,-2.08463 -9.04906,-2.47928 l -6.78595,-0.71744 v 15.03814 15.03806 h 4.48682 c 4.18099,0 4.42513,-0.28924 3.5819,-4.24403 z m -0.52784,-15.64493 c 0,-4.41102 0.57863,-6.8214 1.50814,-6.28257 0.82952,0.48069 1.50817,3.70144 1.50817,7.15688 0,3.45545 -0.67865,6.28257 -1.50817,6.28257 -0.82949,0 -1.50814,-3.22062 -1.50814,-7.15688 z m 27.58373,17.06104 c 0.94896,-3.40388 -1.5847,-5.35703 -2.87085,-2.2131 -2.3284,5.69152 -3.75592,1.21122 -3.46457,-10.87407 l 0.31522,-13.0858 -3.99508,-0.44754 -3.99506,-0.44754 v 14.94812 14.94808 h 6.61086 c 5.34143,0 6.76232,-0.54308 7.3993,-2.82792 z m 16.11495,0.0321 c 3.79957,-3.56396 5.16791,-8.72296 4.04115,-15.236 -1.22559,-7.08426 -5.73714,-10.94626 -12.9428,-11.07947 l -5.8403,-0.10811 0.16187,14.60836 0.16186,14.60841 h 5.72026 c 3.68475,0 6.7799,-0.99401 8.69819,-2.79338 z m -6.74839,-12.06069 c 0,-6.61359 0.509,-12.02473 1.13114,-12.02473 0.62212,0 1.13108,5.41114 1.13108,12.02473 0,6.61363 -0.50903,12.02478 -1.13108,12.02478 -0.62214,0 -1.13114,-5.41115 -1.13114,-12.02478 z m 109.52556,6.01237 c 8.77419,-3.16578 9.93583,-4.36288 7.59357,-7.82536 -0.96807,-1.43097 -3.10814,-1.15761 -10.15712,1.29761 -10.6243,3.70053 -11.87839,4.57997 -10.68637,7.49372 1.19687,2.92573 2.78488,2.80998 13.24992,-0.96597 z M 321.64961,-103.70034 c 5.11186,-3.14178 11.2732,-15.04385 11.28182,-21.79351 0.0227,-17.37848 -14.09042,-31.14718 -27.62935,-26.95591 -17.15944,5.31206 -22.95534,28.49851 -11.1088,44.44101 5.90442,7.9458 18.35838,9.900058 27.45633,4.30841 z m -13.99586,-22.74379 c 0.34886,-18.78744 0.78007,-22.39192 2.67817,-22.39192 1.91356,0 2.26229,3.37752 2.26229,21.90942 0,19.86311 -0.25012,21.95449 -2.67822,22.39193 -2.48824,0.44806 -2.64871,-1.10568 -2.26224,-21.90943 z m 112.1251,22.94381 c 5.81161,-3.57183 8.64029,-10.9299 6.7428,-17.53972 -1.62297,-5.65347 -5.29411,-9.4773 -13.1386,-13.68471 -9.60449,-5.15143 -10.70166,-13.9601 -1.63671,-13.14064 4.40392,0.39832 5.14592,1.13827 7.17421,7.15632 2.71323,8.05032 5.58134,8.85038 5.09798,1.42209 -0.18993,-2.91776 -0.39673,-7.12382 -0.45943,-9.34677 -0.0832,-2.95331 -0.71191,-3.82654 -2.33389,-3.24274 -1.22087,0.43952 -4.31027,0.11539 -6.8653,-0.72004 -6.47778,-2.11814 -17.28692,1.78756 -20.35646,7.35546 -5.30148,9.6163 -0.79384,19.59783 11.509,25.48517 9.09978,4.35459 10.2209,14.06751 1.62365,14.06751 -5.8461,0 -9.52674,-4.21153 -10.4587,-11.96735 -0.49763,-4.14323 -1.50532,-6.42345 -2.83802,-6.42345 -1.57577,0 -2.06609,2.66362 -2.06609,11.22281 v 11.2228 l 4.54579,-0.12141 c 2.50014,-0.0669 5.04519,0.35501 5.65561,0.93728 1.78936,1.706488 13.54445,-0.0646 17.80403,-2.68276 z m 44.64217,1.86471 c 3.09595,-0.002 3.51524,-1.31291 3.51524,-10.98941 0,-4.8477 -0.68965,-7.86656 -1.88521,-8.25234 -1.21648,-0.39246 -1.88722,0.81368 -1.89086,3.4 -0.006,5.49743 -5.41177,13.52189 -8.70676,12.9287 -2.29839,-0.41384 -2.6474,-2.907 -3.01781,-21.56034 -0.2304,-11.60088 0.16541,-21.64025 0.87898,-22.30981 3.5494,-3.3294 10.85123,4.91004 10.85123,12.24459 0,2.19906 0.84908,3.60697 2.17532,3.60697 1.71381,0 2.11378,-2.08188 1.8852,-9.8127 -0.27931,-9.44935 -0.42979,-9.81296 -4.06052,-9.81899 -2.07372,-0.002 -6.60335,-0.13046 -10.0658,-0.28284 -12.21558,-0.53693 -21.31244,8.48353 -22.75481,22.56366 -1.81541,17.72212 9.49884,31.148988 24.52564,29.10501 3.31796,-0.45128 7.16553,-0.82143 8.55016,-0.82246 z m -411.98709,-1.05027 c 0,-0.68284 -1.01799,-2.03399 -2.26222,-3.00261 -3.24861,-2.52895 -3.28908,-37.79679 -0.0456,-41.81626 1.21783,-1.51038 2.2359,-3.10592 2.26222,-3.54564 0.0399,-0.67279 -21.8115,-0.71246 -24.08285,-0.0428 -0.41496,0.12191 0.4338,0.87089 1.88524,1.66398 2.32322,1.26924 2.6393,3.91938 2.6393,22.12678 0,17.26219 -0.41328,21.11287 -2.496,23.27184 -2.39872,2.48627 -2.01657,2.58712 9.80311,2.58712 6.76455,-4e-5 12.29921,-0.55869 12.29921,-1.24146 z m 40.72075,-0.055 c 0,-0.71321 -0.73298,-1.52596 -1.62889,-1.80609 -0.89591,-0.28017 -1.94547,-4.53399 -2.33234,-9.45313 -0.96534,-12.27359 2.40103,-11.03214 5.59201,2.06232 l 2.38477,9.78633 20.61486,0.39354 c 11.33819,0.21643 20.61485,0.01 20.61485,-0.4545 0,-0.46677 -1.03143,-1.8158 -2.29216,-2.99837 -3.15002,-2.95482 -3.06087,-38.53322 0.10667,-42.45307 1.14945,-1.42257 2.11152,-2.90477 2.13797,-3.29381 0.0399,-0.56113 -21.06437,-0.60718 -24.08296,-0.0535 -0.41498,0.0764 0.43378,0.78744 1.88522,1.58053 2.32666,1.27115 2.6393,3.93755 2.6393,22.50831 0,20.38807 -1.01919,25.08731 -4.69353,21.64076 -0.77792,-0.72966 -2.51585,-5.09861 -3.86206,-9.7088 -1.34621,-4.61013 -3.50543,-9.18497 -4.79835,-10.16626 -2.09305,-1.58876 -1.99262,-2.01946 0.91693,-3.93104 6.36852,-4.18416 5.70725,-17.02062 -1.05164,-20.41365 -3.48235,-1.74815 -34.79887,-3.34658 -34.72499,-1.77238 0.0286,0.56233 1.04438,2.25813 2.26225,3.7685 3.17421,3.93648 3.17421,37.2557 0,41.19224 -1.21787,1.51031 -2.23592,3.22349 -2.26225,3.80704 -0.0286,0.58355 5.0421,1.06095 11.26335,1.06095 6.22119,0 11.31129,-0.58352 11.31129,-1.29676 z m -3.47853,-25.15971 c -0.40188,-0.62135 -0.78567,-5.08021 -0.85269,-9.90865 -0.12038,-8.67206 1.88111,-12.57615 4.47673,-8.73209 2.16559,3.20702 1.61402,16.26158 -0.7653,18.11382 -1.1704,0.91114 -2.45683,1.14823 -2.85874,0.52721 z m 88.71811,20.55782 c 11.49757,-11.77404 10.28575,-32.21221 -2.43729,-41.10685 -3.22433,-2.2541 -6.42809,-2.73889 -18.09811,-2.73874 -17.68643,3.2e-4 -17.75939,0.01 -14.55732,1.75857 2.32666,1.27111 2.6393,3.93749 2.6393,22.50832 0,12.51823 -0.61196,21.42116 -1.50816,21.94072 -0.82949,0.48066 -1.5082,1.53297 -1.5082,2.33805 0,0.94387 5.39841,1.29104 15.20019,0.9775 l 15.20011,-0.48602 z m -15.86348,-19.56556 c 0,-16.53598 0.43208,-21.32074 1.88524,-20.86646 1.39125,0.43521 1.88523,5.90234 1.88523,20.86646 0,14.96419 -0.4942,20.43152 -1.88523,20.86655 -1.45298,0.45447 -1.88524,-4.33049 -1.88524,-20.86655 z m 61.83517,21.4277 c 0,-2.22007 0.44575,-8.03578 0.99028,-12.92384 0.80795,-7.25023 0.60355,-8.76639 -1.1096,-8.23072 -1.15496,0.36089 -2.61199,3.47028 -3.23787,6.9093 -1.34542,7.39257 -5.63283,13.3304 -9.62507,13.3304 -2.49905,0 -2.91039,-1.29193 -3.31082,-10.39939 -0.34087,-7.75661 0.0177,-10.25175 1.40049,-9.81852 1.90006,0.59409 2.85025,1.98738 5.58761,8.19315 1.24678,2.8267 1.58047,0.99494 1.66203,-9.12467 0.061,-7.57935 -0.44461,-12.12193 -1.25974,-11.31744 -0.74893,0.7392 -1.60511,2.60989 -1.90247,4.1571 -0.29755,1.54722 -1.55097,2.99545 -2.78569,3.21834 -1.77544,0.3203 -2.24497,-1.27851 -2.24497,-7.64572 0,-5.0829 0.67918,-8.26359 1.84236,-8.62788 2.77815,-0.86999 9.40623,6.05757 10.44156,10.91329 1.62294,7.61188 3.5519,4.54596 3.5519,-5.64555 v -9.92579 l -17.72104,0.57217 c -20.68702,0.66792 -19.97924,0.56483 -16.58996,2.41654 2.32322,1.26929 2.63931,3.9194 2.63931,22.12678 0,17.26219 -0.41325,21.11291 -2.49601,23.27192 -2.40508,2.49283 -1.82822,2.58704 15.83587,2.58704 h 18.33183 z m 51.278,3.22814 c 0,-0.44433 -1.01805,-1.76329 -2.26229,-2.9304 -3.20106,-3.00265 -3.38177,-43.25972 -0.18918,-42.11053 2.37585,0.85517 6.65428,9.49066 7.29624,14.7264 0.23824,1.94517 1.11234,3.53671 1.94183,3.53671 1.48645,0 2.51943,-18.23645 1.21381,-21.42896 -0.45888,-1.12171 -6.57535,-1.54795 -19.79106,-1.37911 l -19.12718,0.24433 -0.44402,11.98126 c -0.47542,12.83005 0.96292,13.69948 4.16695,2.51881 1.04798,-3.65689 3.18407,-7.73432 4.74688,-9.06097 2.77132,-2.35262 2.84148,-1.88182 2.84148,19.07172 0,17.79167 -0.38874,21.62374 -2.26229,22.29813 -5.43233,1.95533 -1.36666,3.3409 9.80319,3.3409 6.63594,0 12.06536,-0.36357 12.06536,-0.80837 z m 110.09672,-11.92376 c 0,-7.00261 -0.56204,-12.73212 -1.24914,-12.73212 -0.687,0 -2.06708,3.32381 -3.06678,7.38626 -1.83169,7.4434 -6.57799,13.83394 -10.27463,13.83394 -1.48263,0 -1.99935,-2.74208 -1.99935,-10.61006 0,-5.83558 0.57003,-10.61014 1.26607,-10.61014 1.50503,0 4.76661,6.3376 4.76661,9.26197 0,1.13053 0.67866,2.05549 1.50817,2.05549 0.88718,0 1.5082,-4.95136 1.5082,-12.02479 0,-12.59736 -1.19996,-14.89529 -4.06285,-7.78072 -2.79287,6.94048 -4.9862,5.07358 -4.9862,-4.24404 0,-4.6684 0.58713,-8.48808 1.30479,-8.48808 3.02119,0 9.16014,6.06136 10.76839,10.63225 2.78495,7.91526 4.69605,5.81739 4.20862,-4.61986 l -0.44574,-9.54908 h -17.71855 c -9.74516,0 -17.69807,0.31812 -17.67308,0.70738 0.0227,0.38924 1.04186,1.94302 2.25971,3.45339 3.234,4.0106 3.19403,39.28054 -0.0456,42.32152 -1.24423,1.16711 -2.26229,2.4858 -2.26229,2.9304 0,0.44484 8.14414,0.80836 18.09812,0.80836 h 18.09808 z m 99.53957,11.92372 c 0,-0.44433 -0.96145,-1.71025 -2.1366,-2.81252 -1.45383,-1.36379 -1.78063,-3.2527 -1.02262,-5.91135 0.94185,-3.30336 1.91293,-3.90718 6.28412,-3.90718 4.88569,0 5.19584,0.29194 5.63818,5.30504 0.27076,3.07095 -0.20521,5.30507 -1.13115,5.30507 -0.87954,0 -1.59918,0.63659 -1.59918,1.41466 0,0.88597 9.30042,1.41465 24.88485,1.41465 13.68673,0 24.88492,-0.36358 24.88492,-0.80837 0,-0.44433 -1.01805,-1.76329 -2.26229,-2.9304 -1.24424,-1.16707 -2.26223,-3.66806 -2.26223,-5.55768 0,-2.88668 0.73487,-3.43564 4.59943,-3.43564 5.71672,0 12.56812,-3.22693 15.66936,-7.38004 2.99962,-4.01708 3.0939,-16.88225 0.16247,-22.19918 -3.09947,-5.62212 -9.63737,-7.63878 -25.243,-7.7864 -13.00886,-0.12292 -17.38628,0.76315 -12.48439,2.52759 1.93937,0.69807 2.22882,4.15751 1.87656,22.4294 -0.40357,20.93205 -0.51815,21.61761 -3.68033,22.04021 -3.84267,0.51329 -3.50909,1.34571 -9.50586,-23.71669 -3.01706,-12.60902 -4.04902,-19.51106 -3.05645,-20.44211 2.82929,-2.6539 1.47276,-3.03913 -10.5661,-3.00047 -11.41258,0.0375 -14.7119,0.90574 -9.94808,2.62047 2.99625,1.07851 -8.10305,42.69201 -12.15508,45.57183 -2.49772,1.77506 -1.97198,1.98216 5.13535,2.02251 4.35489,0.0266 7.91791,-0.31866 7.91791,-0.7634 z m 0.7042,-22.71466 c 1.74147,-10.89285 2.72897,-11.57116 4.78948,-3.28958 2.5404,10.21034 2.61239,9.83648 -1.89446,9.83648 -3.8331,0 -3.91284,-0.18024 -2.89502,-6.5469 z m 50.5738,-8.20346 c 0,-12.26726 0.40186,-14.95789 2.23351,-14.95789 2.97458,0 3.75887,4.11087 3.36961,17.66166 -0.27248,9.48702 -0.74713,11.37237 -2.96381,11.77486 -2.37944,0.43203 -2.63931,-0.99364 -2.63931,-14.47863 z m 61.83515,18.9944 c 0,-7.54494 -0.61442,-12.73212 -1.50815,-12.73212 -0.8295,0 -1.50816,0.93265 -1.50816,2.07259 0,4.00569 -4.90097,15.55796 -7.33859,17.29819 -5.24133,3.7418 -6.23693,2.27463 -6.18483,-9.11434 l 0.0513,-10.96377 2.9662,3.33974 c 1.6314,1.83691 2.96615,4.58002 2.96615,6.0959 0,1.51588 0.60342,2.40628 1.34097,1.97875 1.78359,-1.03403 1.82913,-23.43915 0.0456,-23.43915 -0.76371,0 -1.38863,1.14593 -1.38863,2.54642 0,2.62394 -2.69482,5.94166 -4.82618,5.94166 -0.66356,0 -1.2065,-3.81961 -1.2065,-8.48808 0,-4.6684 0.58712,-8.48808 1.30477,-8.48808 3.02846,0 9.30654,6.16671 10.43432,10.24922 2.28737,8.27997 4.8508,6.29021 4.8508,-3.76524 v -9.31328 l -10.93422,-0.099 c -6.01387,-0.0545 -14.15802,-0.30638 -18.0981,-0.55988 -7.73607,-0.49779 -8.23198,-0.0774 -4.85366,4.11235 3.23401,4.01059 3.19404,39.28053 -0.0456,42.32154 -1.24424,1.16711 -2.26229,2.48578 -2.26229,2.93036 0,0.44487 8.14414,0.8084 18.0981,0.8084 h 18.0981 v -12.73216 z m -316.58237,-49.2102 c 15.67752,-7.05962 29.43717,-23.02396 32.33575,-37.51699 0.76702,-3.83502 1.80395,-5.2269 3.89394,-5.2269 2.66591,0 2.84848,1.35991 2.84848,21.22017 0,17.91927 0.35172,21.22017 2.26224,21.22017 1.91037,0 2.26229,-3.3009 2.26229,-21.22017 v -21.22017 h 3.77044 c 2.34603,0 3.77041,-0.80169 3.77041,-2.12203 0,-1.62191 -1.90233,-2.12201 -8.07197,-2.12201 h -8.07206 l -1.62661,-9.20784 c -3.34932,-18.95921 -14.62816,-34.15278 -30.94741,-41.6887 -12.76392,-5.8941 -25.65809,-8.02058 -36.8327,-6.0743 -4.79059,0.83439 -9.15306,1.1029 -9.69436,0.59672 -0.54151,-0.50636 -5.5211,-11.10603 -11.06624,-23.55518 -5.54513,-12.44921 -10.63382,-23.17626 -11.30816,-23.83799 -1.45496,-1.4277 -19.38862,4.17278 -22.6408,7.07048 -4.27496,3.80908 1.22337,4.83283 9.70855,1.80765 4.19953,-1.49723 8.01883,-2.72256 8.48731,-2.72293 1.21626,-10e-4 5.93498,9.59699 5.93498,12.07205 0,1.77756 -6.66695,2.07402 -46.63649,2.07402 h -46.63647 l -1.78792,-5.0816 c -1.0898,-3.09743 -1.24554,-5.59043 -0.39901,-6.38465 0.76398,-0.71662 5.99507,-2.20694 11.62451,-3.31176 11.60046,-2.27668 11.84404,-2.4004 10.61981,-5.39295 -1.31583,-3.21644 -3.7225,-3.44449 -28.99265,-2.74742 -20.55063,0.56686 -22.82278,0.87063 -21.11443,2.82301 2.91406,3.33033 14.98688,10.19264 17.93195,10.19264 1.84492,0 3.28531,2.1683 4.92433,7.41309 l 2.31672,7.41316 -6.88593,12.03866 c -3.78726,6.62129 -7.41544,12.57036 -8.06269,13.22013 -0.64721,0.64974 -3.34198,0.13096 -5.98834,-1.15258 -7.65046,-3.71088 -20.57386,-5.12373 -31.68903,-3.46424 -19.13341,2.85653 -35.11357,13.76238 -44.25023,30.19907 -4.48126,8.06178 -4.78315,9.53835 -4.79493,23.45745 -0.0127,13.06664 0.45885,15.79037 3.90427,22.63483 5.80753,11.53617 16.38304,21.73318 28.19834,27.1893 9.42747,4.35338 11.03334,4.64092 25.91775,4.64092 14.03027,0 16.8586,-0.43578 24.42668,-3.76362 10.22375,-4.49556 21.14103,-13.58941 26.37877,-21.97284 2.09396,-3.35161 4.14702,-6.09376 4.56232,-6.09376 2.71728,0 9.44465,5.20607 8.79123,6.80327 -0.43093,1.05392 -0.78394,2.45645 -0.78394,3.11678 0,0.66032 -1.47385,1.40402 -3.27522,1.65265 -1.80141,0.2486 -3.55471,1.24784 -3.89614,2.22041 -0.44688,1.27309 1.73759,1.76836 7.79981,1.76836 8.32661,0 11.61338,-2.31106 5.44032,-3.82533 -2.37681,-0.583 -2.67755,-1.26167 -1.48518,-3.35153 0.83895,-1.47049 2.45061,-2.27662 3.67223,-1.8369 3.3261,1.19719 12.0099,-1.98122 15.82788,-5.79333 4.00364,-3.99745 5.75405,-14.42951 3.17861,-18.94345 -1.59801,-2.80077 0.73161,-5.3119 29.39313,-31.68373 17.12083,-15.75299 31.73348,-28.85276 32.47263,-29.11051 0.73913,-0.25773 2.06909,1.32049 2.95549,3.5073 1.14977,2.8367 1.14431,4.122 -0.0178,4.4858 -0.89695,0.28018 -5.17914,3.0108 -9.51602,6.06747 -22.19972,15.64644 -29.76918,43.33642 -18.17752,66.49512 5.68862,11.36515 11.11515,17.40962 20.90135,23.2817 11.59259,6.95593 20.49988,9.13123 35.38184,8.64056 10.7302,-0.35396 14.43907,-1.15192 22.75703,-4.89753 z m -215.80351,-3.2552 c -6.40274,-1.15748 -18.09809,-5.35049 -18.09809,-6.48851 0,-1.6621 26.12746,-35.82954 27.39844,-35.82954 0.93241,0 1.216,2.36757 0.7201,6.01237 -0.44975,3.30681 -0.85259,13.17418 -0.89473,21.92753 -0.0399,8.75332 -0.58563,15.84536 -1.20776,15.7601 -0.6221,-0.0855 -4.18519,-0.70713 -7.91796,-1.38195 z m 175.16778,0.0226 c -1.95306,-0.73375 -3.20994,-2.12578 -2.79315,-3.09335 0.4167,-0.96762 4.26756,-9.26596 8.5573,-18.44083 4.28962,-9.17487 7.5568,-17.36417 7.26035,-18.19849 -0.29642,-0.83426 -4.17017,6.67247 -8.60821,16.68158 -4.43801,10.00919 -8.66607,18.81459 -9.39563,19.56764 -1.72299,1.77841 -10.24889,-2.49569 -15.77926,-7.9103 -2.59367,-2.53936 -3.6361,-4.5812 -2.75219,-5.39076 6.55471,-6.00335 36.37282,-25.04299 38.42979,-24.53839 2.00276,0.49135 3.26529,4.72375 5.94,19.91317 1.86818,10.60911 3.73118,20.10693 4.13998,21.10625 0.90007,2.19998 -19.29826,2.4452 -24.99898,0.30371 z m -164.09407,-6.24129 c 0.54553,-3.7328 1.00211,-12.58672 1.01482,-19.67525 0.0127,-7.08859 0.64052,-13.80361 1.39512,-14.92222 1.10417,-1.63692 4.92087,0.1576 19.55426,9.1954 10.00031,6.17611 18.19536,11.60757 18.21122,12.06991 0.1027,2.9927 -17.14442,15.72444 -18.67953,13.789 -0.21042,-0.26572 -4.34361,-7.96392 -9.1845,-17.10745 -4.84082,-9.14354 -9.1126,-16.33275 -9.49287,-15.97608 -0.3802,0.35664 3.35844,8.34605 8.30832,17.75422 10.22368,19.43208 10.27868,19.17126 -4.38321,20.80005 l -7.73539,0.85936 z m 190.31933,3.16157 c -0.41781,-1.75064 -1.82838,-9.23077 -3.1343,-16.62248 -1.30587,-7.39166 -2.68028,-14.71263 -3.05422,-16.2688 -0.37393,-1.55615 -0.066,-3.71318 0.68414,-4.79333 1.11113,-1.59982 4.3998,-0.76394 17.73607,4.50807 9.00466,3.55964 18.26569,7.14295 20.5802,7.963 3.7293,1.32127 4.01038,1.83765 2.46978,4.53778 -0.95609,1.67576 -4.45663,5.81301 -7.77898,9.19385 l -6.04062,6.14703 -3.97006,-4.78031 c -2.18351,-2.62924 -7.94259,-9.66549 -12.79795,-15.63613 -4.85532,-5.97067 -9.16164,-10.54264 -9.56961,-10.16001 -0.40812,0.38283 4.75233,7.39238 11.4672,15.57724 6.71493,8.1848 12.20896,15.47289 12.20896,16.19573 0,1.3174 -13.50132,7.32139 -16.46376,7.32139 -0.86727,0 -1.91885,-1.43237 -2.33685,-3.18303 z M 36.80448,-182.01656 c -3.84621,-3.85703 -6.99317,-7.54004 -6.99317,-8.18442 0,-1.19006 11.58728,-6.8888 31.1964,-15.34269 l 10.83599,-4.67161 -12.34421,17.56684 c -6.78926,9.6618 -13.09961,17.5844 -14.02298,17.60579 -0.92337,0.0201 -4.82577,-3.11688 -8.67203,-6.97391 z m 173.45651,-8.9611 c -3.33473,-6.62599 -6.20453,-15.08508 -5.15302,-15.18925 0.22281,-0.0201 10.89015,-1.27519 23.70441,-2.78472 12.81425,-1.50952 23.54799,-2.51059 23.85285,-2.22471 0.30496,0.28606 -1.6961,2.07751 -4.44643,3.98136 -2.75036,1.90384 -11.58165,7.98941 -19.62508,13.5236 l -14.62442,10.06205 z m -105.44766,-5.83081 c -6.44497,-4.11828 -12.11106,-7.85636 -12.59131,-8.30686 -0.48053,-0.45021 5.81088,1.64702 13.98034,4.66113 8.16944,3.01409 14.78574,6.15387 14.70278,6.97723 -0.3762,3.73441 -0.72043,4.32113 -2.48852,4.24129 -1.03687,-0.048 -7.15836,-3.45458 -13.60329,-7.57279 z m 41.82213,3.76752 c 1.04347,-3.97382 10.96114,-16.02281 13.9604,-16.96057 2.38103,-0.7445 3.83207,6.97491 2.10982,11.22398 -1.92383,4.7463 -8.69763,9.62698 -13.36132,9.62698 -3.31186,0 -3.61586,-0.43683 -2.7089,-3.89039 z m -9.29968,-0.75091 c -1.65602,-1.72671 -3.43005,-4.25349 -3.94237,-5.61511 -0.74033,-1.96764 -0.09,-2.47126 3.16867,-2.45404 6.1886,0.0322 8.20087,1.78804 7.0369,6.13826 -1.38566,5.1786 -2.74626,5.59806 -6.2632,1.93089 z m -111.68384,-4.90778 c -0.89122,-2.91777 -2.0909,-8.09129 -2.66581,-11.49672 l -1.04542,-6.19167 17.88595,0.92632 c 9.83726,0.50955 21.17312,1.29468 25.19091,1.74488 l 7.30497,0.81866 -21.40626,9.75178 c -11.77348,5.36346 -21.90973,9.75179 -22.52505,9.75179 -0.61535,0 -1.84801,-2.3873 -2.73929,-5.30504 z m 259.04105,-4.01665 c -10.36869,-4.17313 -19.53088,-7.83372 -20.3604,-8.13463 -3.38551,-1.22821 0.95572,-2.17135 19.92057,-4.328 25.8835,-2.9433 24.57062,-3.04322 24.57062,1.87087 0,5.13851 -3.22385,18.55563 -4.40652,18.33902 -0.47998,-0.0877 -9.35557,-3.57406 -19.72427,-7.74726 z m -176.90495,1.22032 c -7.29733,-2.73266 -13.03319,-5.18856 -12.74641,-5.45755 0.28671,-0.26894 7.39433,0.51649 15.79459,1.74573 14.42495,2.11077 15.20861,2.39864 14.11058,5.18283 -0.63943,1.62136 -1.77645,3.07158 -2.52671,3.22268 -0.75025,0.15132 -7.33472,-1.96098 -14.63205,-4.69369 z m 30.2349,-5.64399 c -2.28117,-0.32401 -4.14753,-1.07269 -4.14753,-1.66346 0,-1.42235 7.36265,-7.87826 8.11285,-7.11372 1.32616,1.35151 2.58629,9.77388 1.43311,9.57844 -0.68802,-0.11663 -3.11732,-0.47692 -5.39843,-0.80126 z m 67.08873,-10.32946 c 0.42296,-5.54401 1.48166,-10.74866 2.35285,-11.56586 1.10653,-1.03793 7.79903,0.94291 22.20254,6.57149 11.34025,4.43151 20.92659,7.76836 21.30303,7.41523 0.37622,-0.35342 -8.67917,-4.32897 -20.12367,-8.83529 -11.44449,-4.50634 -21.03278,-8.34766 -21.30736,-8.53634 -1.81424,-1.24677 11.14831,-17.56157 13.95321,-17.56157 2.69545,0 30.05005,34.02943 28.51328,35.47093 -0.70165,0.65816 -10.09197,2.18284 -20.86739,3.38818 -10.7754,1.20539 -21.2125,2.53845 -23.19356,2.96246 -3.589,0.76813 -3.5991,0.73503 -2.83293,-9.30923 z m -82.07625,7.54698 c 1.08874,-0.4085 2.38953,-0.35825 2.89069,0.11186 0.50104,0.46999 -0.38933,0.80443 -1.97951,0.743 -1.75691,-0.0679 -2.11431,-0.40315 -0.91118,-0.85468 z m -16.30716,-3.12582 -8.29497,-0.86516 9.64734,-1.05802 c 14.36425,-1.57535 20.12088,-1.36445 19.39354,0.71032 -0.70637,2.0149 -8.62056,2.4776 -20.74591,1.21286 z m 41.68355,-2.27389 c -0.52327,-1.27959 -0.006,-2.12198 1.29947,-2.12198 1.30711,0 1.823,0.84239 1.29947,2.12198 -0.47767,1.16716 -1.06221,2.12206 -1.29947,2.12206 -0.23722,0 -0.82201,-0.9549 -1.29947,-2.12206 z m 5.824,0.70738 c 0.51246,-0.77806 1.23137,-1.4147 1.5972,-1.4147 0.36596,0 0.66505,0.63664 0.66505,1.4147 0,0.77809 -0.71875,1.41468 -1.5972,1.41468 -0.87839,0 -1.17772,-0.63659 -0.66505,-1.41468 z m -95.76912,-1.45854 c -6.22126,-0.55058 -16.57108,-1.08423 -22.99971,-1.18594 -11.24174,-0.17797 -11.68835,-0.31333 -11.68835,-3.5437 0,-3.92274 3.83907,-14.67477 6.18742,-17.32892 1.27788,-1.44429 5.51866,0.59718 19.96317,9.61026 16.31986,10.18321 22.62657,14.38555 20.5274,13.67812 -0.37336,-0.12568 -5.76876,-0.67927 -11.98993,-1.22982 z m 25.63895,0.91061 c 0,-0.76512 36.95113,-17.8429 38.60658,-17.8429 1.18173,0 3.94915,11.30738 3.20977,13.11465 -0.57327,1.40135 -4.62997,2.29085 -13.40129,2.9384 -6.91857,0.51063 -16.14227,1.33447 -20.49716,1.83032 -4.35483,0.49565 -7.9179,0.47747 -7.9179,-0.0427 z m 180.22695,-0.532 c 0.82952,-0.72264 8.295,-5.94782 16.58997,-11.61154 17.34013,-11.83971 18.53945,-12.77289 16.41533,-12.77289 -0.84254,0 -9.29112,5.41381 -18.77464,12.03078 -9.48346,6.61688 -17.42897,11.50659 -17.65664,10.866 -0.22736,-0.64067 2.54907,-7.48683 6.17052,-15.21383 3.62145,-7.72696 7.53548,-16.11799 8.69785,-18.64671 1.1624,-2.52877 2.86396,-4.59771 3.78124,-4.59771 2.76528,0 13.61608,7.97621 17.72497,13.02928 4.78296,5.88209 9.95726,16.40889 10.00131,20.34729 0.0286,2.7318 -1.28054,3.09287 -16.93389,4.66345 -9.33184,0.93627 -19.34235,2.04376 -22.24556,2.46098 -3.28786,0.47265 -4.70984,0.26306 -3.77046,-0.5551 z M 53.16744,-228.84846 c -9.94262,-6.16387 -18.75619,-11.44144 -19.5857,-11.72798 -0.82949,-0.28658 -0.15099,-2.26656 1.50817,-4.40011 3.1583,-4.06164 15.40037,-13.00563 16.38496,-11.97072 1.06416,1.11857 20.42568,38.69089 20.09683,38.99935 -0.17957,0.16842 -8.46159,-4.73667 -18.40426,-10.90054 z m 11.33193,-7.81057 c -5.39176,-10.53404 -10.00796,-19.69056 -10.25831,-20.34796 -0.54037,-1.41828 6.96126,-3.84067 15.91397,-5.13904 l 6.40975,-0.92959 v 22.81566 c 0,12.54862 -0.509,22.8017 -1.13113,22.78466 -0.62214,-0.0151 -5.5426,-8.64976 -10.93428,-19.18373 z m 93.82547,17.99946 c -2.99755,-1.76044 0.32605,-8.68747 4.16861,-8.68747 1.6795,0 3.05365,-0.63664 3.05365,-1.4147 0,-0.77806 -3.39338,-1.41465 -7.54084,-1.41465 -4.14751,0 -7.54088,0.63659 -7.54088,1.41465 0,0.77806 1.09062,1.4147 2.42359,1.4147 1.59043,0 2.10891,0.76932 1.50822,2.23772 -0.50333,1.23072 -0.91545,2.50396 -0.91545,2.82936 0,0.32562 -1.56214,0.59164 -3.47141,0.59164 -3.22336,0 -4.23,-2.37528 -14.08929,-33.24496 l -10.61797,-33.24493 h 47.74394 47.74395 l 2.65122,5.21505 2.65126,5.21503 -8.78167,7.66459 c -4.82991,4.21561 -19.6405,17.76732 -32.91248,30.11509 -16.57467,15.42048 -24.7394,22.09292 -26.07445,21.30888 z m -79.68826,-21.253 c 0.46286,-11.96863 1.08344,-21.9884 1.37962,-22.26622 0.9676,-0.90764 16.32776,3.30528 18.09508,4.96306 1.29092,1.21089 -0.31806,5.24225 -6.42383,16.09583 -4.48036,7.9642 -9.43896,16.39019 -11.01902,18.72441 l -2.87297,4.24403 z m 8.48542,19.91416 c 0,-1.14353 16.73258,-30.61175 18.16634,-31.99332 0.81348,-0.78384 3.51822,0.85186 6.79116,4.10707 6.04841,6.01563 10.44656,11.85089 9.55779,12.68086 -1.27229,1.18812 -34.51529,15.833 -34.51529,15.20539 z m 45.64696,-6.04842 c -2.69995,-10.66156 -7.48739,-18.66933 -15.69475,-26.25212 -4.03129,-3.72449 -7.32957,-7.2513 -7.32957,-7.83731 0,-1.84646 10.88081,-19.72173 11.5963,-19.05065 1.00361,0.94147 18.56722,56.22154 18.56722,58.43914 0,1.03893 -1.19676,1.88896 -2.65948,1.88896 -1.95265,0 -3.14315,-1.91025 -4.47972,-7.18802 z m 124.74941,4.71236 c -0.0178,-0.58362 -1.36012,-8.7003 -2.9889,-18.03718 -3.97772,-22.80148 -4.07129,-21.92749 2.34849,-21.92749 7.02091,0 18.76599,2.80485 18.76599,4.48148 0,2.42553 -15.82118,36.46507 -16.96703,36.50491 -0.6221,0.0226 -1.14345,-0.43844 -1.15855,-1.02172 z m -20.29634,-17.28455 -11.38494,-14.10143 4.51308,-2.18915 c 4.47711,-2.17165 4.53005,-2.15224 6.63576,2.43036 1.16746,2.54074 4.54859,9.87149 7.51359,16.29063 2.96508,6.41911 5.10218,11.67106 4.74924,11.67106 -0.35286,0 -5.765,-6.34564 -12.02673,-14.10147 z m 10.64563,-4.6721 c -3.14514,-7.18113 -6.08028,-13.90317 -6.52262,-14.93778 -0.57964,-1.35593 0.38933,-1.75086 3.47067,-1.41465 4.16685,0.45447 4.34151,0.8224 6.91866,14.56618 1.45418,7.75486 2.46569,14.267 2.24783,14.47136 -0.21776,0.20411 -2.9694,-5.5039 -6.11454,-12.68511 z m 111.47997,56.26257 v -22.63485 h -10.55726 -10.55719 l -0.41896,21.158 c -0.23041,11.6369 -0.07,22.01105 0.35624,23.05358 0.56717,1.38627 3.51656,1.78311 10.97641,1.47684 l 10.20089,-0.41865 z m -16.75125,16.86042 c 0.50332,-1.23073 0.91546,-9.82488 0.91546,-19.09814 v -16.86042 h 6.03263 6.03273 v 19.09814 19.09816 h -6.94814 c -5.71621,0 -6.78584,-0.39674 -6.03268,-2.23774 z m 58.22609,-5.63265 v -12.1144 l -4.78544,0.44326 c -5.35772,0.49618 -7.87959,3.98 -2.88116,3.98 2.80306,0 3.14206,0.83935 3.14206,7.78075 v 7.78073 h -6.03273 -6.0327 v -19.09819 -19.09811 h 6.0327 c 5.88908,0 6.03273,0.11764 6.03273,4.95136 0,3.53564 0.67046,4.95137 2.34489,4.95137 1.8565,0 2.24917,-1.39965 1.88521,-6.71972 l -0.45944,-6.71972 h -9.80317 -9.80313 l -0.41897,21.15798 c -0.23015,11.63692 -0.0822,21.98179 0.32946,22.98852 0.50676,1.23902 3.9319,1.83054 10.59935,1.83054 h 9.85049 z m 25.27034,10.34607 c -0.34086,-0.97257 -3.45157,-1.9641 -6.91244,-2.20335 l -6.29254,-0.43525 v -8.40673 -8.40668 h 6.03272 c 4.35696,0 6.03268,-0.58951 6.03268,-2.12206 0,-1.53255 -1.67572,-2.12198 -6.03268,-2.12198 h -6.03272 v -8.48808 -8.48808 h 6.03272 c 4.35696,0 6.03268,-0.58948 6.03268,-2.12203 0,-1.62902 -1.92711,-2.12198 -8.29497,-2.12198 h -8.29497 v 23.34215 23.34222 h 9.17474 c 6.665,0 9.00516,-0.48389 8.55478,-1.76835 z m 15.45039,-19.45181 v -21.22017 h 4.52451 c 3.01632,0 4.52454,-0.70738 4.52454,-2.12206 0,-1.68412 -2.17851,-2.12198 -10.55726,-2.12198 -8.37871,0 -10.55722,0.43791 -10.55722,2.12198 0,1.32037 1.42436,2.12206 3.77046,2.12206 h 3.77044 v 21.22017 c 0,17.91926 0.35169,21.22017 2.26224,21.22017 1.91035,0 2.26229,-3.30091 2.26229,-21.22017 z m 30.16347,12.09866 v -9.12145 l 7.91795,-0.42775 7.91791,-0.42773 0.45032,-10.59345 c 0.70967,-16.69225 0.51415,-16.99277 -11.03631,-16.99277 h -9.77445 v 23.34218 c 0,19.80551 0.34257,23.34222 2.26229,23.34222 1.77697,0 2.26221,-1.95663 2.26221,-9.12152 z m 0,-23.4161 v -9.90273 h 5.27865 5.27861 v 9.90273 9.90273 h -5.27861 -5.27865 z m 39.21257,30.41557 c 0,-1.53257 -1.67574,-2.122 -6.03268,-2.122 h -6.03274 v -21.22017 c 0,-17.91927 -0.3517,-21.22017 -2.26224,-21.22017 -1.91948,0 -2.26229,3.53666 -2.26229,23.34218 v 23.3422 h 8.29497 c 6.36786,0 8.29498,-0.49299 8.29498,-2.12204 z m 9.04905,-2.82938 c 0,-4.70321 0.26107,-4.95137 5.21026,-4.95137 4.76057,0 5.29577,0.42721 6.20055,4.95137 0.68796,3.4397 1.80371,4.95142 3.65462,4.95142 2.46642,0 2.52257,-0.65696 0.75591,-8.84176 -1.04964,-4.86293 -3.14514,-15.36696 -4.65666,-23.34217 -2.28024,-12.03113 -3.20807,-14.50045 -5.4483,-14.50045 -1.48502,0 -2.70001,0.33792 -2.70001,0.75064 0,1.06477 -7.36185,38.91197 -8.31567,42.75067 -0.6199,2.49489 -0.13224,3.18307 2.25421,3.18307 2.47467,0 3.04509,-0.92755 3.04509,-4.95142 z m 2.01445,-12.37841 c 0.45829,-1.75066 1.30859,-6.60005 1.8895,-10.77645 1.26841,-9.11873 2.87699,-7.23558 4.37159,5.11775 l 1.0697,8.84171 h -4.08203 c -3.47466,0 -3.95804,-0.47374 -3.24876,-3.18301 z m 41.42442,9.1954 c 0.36538,-5.95347 -0.0114,-7.42705 -1.88522,-7.42705 -1.7258,0 -2.34107,1.48723 -2.34107,5.65869 v 5.65875 h -6.03274 -6.03268 v -19.09816 -19.09814 h 6.03268 c 5.8891,0 6.03274,0.11764 6.03274,4.95136 0,3.53563 0.67045,4.95137 2.34489,4.95137 1.85649,0 2.24918,-1.39965 1.88522,-6.71972 l -0.45943,-6.71972 h -9.8032 -9.80312 l -0.41897,21.158 c -0.23029,11.6369 -0.0695,22.01233 0.3574,23.05652 0.56204,1.37456 3.38336,1.78211 10.22233,1.47679 l 9.44561,-0.42187 z m 24.42902,6.01239 c 0,-1.53257 -1.67574,-2.122 -6.03268,-2.122 h -6.03274 v -8.48805 -8.48808 h 5.27866 c 3.68661,0 5.27861,-0.64001 5.27861,-2.12203 0,-1.48205 -1.592,-2.12201 -5.27861,-2.12201 h -5.27866 v -8.48805 -8.48808 h 6.03274 c 4.35694,0 6.03268,-0.58949 6.03268,-2.12206 0,-1.629 -1.92711,-2.12198 -8.29497,-2.12198 h -8.29497 v 23.34218 23.3422 h 8.29497 c 6.36786,0 8.29497,-0.49299 8.29497,-2.12204 z m 26.8751,-4.1092 c 0.70835,-8.11826 -0.43494,-10.63464 -8.73704,-19.23297 -5.78945,-5.99596 -7.5206,-8.85495 -7.54682,-12.46386 -0.0342,-4.55126 0.12542,-4.67071 5.62164,-4.24404 5.39768,0.41921 5.63328,0.64879 5.16494,5.03676 -0.41554,3.89232 10e-4,4.59774 2.72196,4.59774 2.89171,0 3.16674,-0.67131 2.75297,-6.71972 l -0.45944,-6.71972 h -9.80312 -9.80314 l -0.44518,7.1341 c -0.42353,6.78596 -0.0736,7.53205 7.16382,15.29007 4.53416,4.8602 7.6089,9.5052 7.6089,11.49468 0,1.83633 0.41212,4.34569 0.91545,5.57642 0.7432,1.81669 -0.25022,2.23774 -5.2786,2.23774 h -6.19411 v -5.65875 c 0,-4.08683 -0.62839,-5.65869 -2.26224,-5.65869 -1.69888,0 -2.26229,1.70285 -2.26229,6.83761 0,3.76068 0.48109,7.28895 1.06924,7.84058 0.58809,0.55158 5.16917,0.81682 10.1802,0.58944 l 9.11096,-0.41333 z m -272.38002,-64.85637 0.42638,-15.91513 4.14745,6.61797 c 3.38814,5.40622 4.14752,8.32024 4.14752,15.91513 0,8.23842 0.33118,9.29718 2.90784,9.29718 3.77257,0 4.98834,-8.70722 4.34548,-31.12295 -0.44861,-15.64146 -0.59737,-16.28617 -3.85994,-16.72081 -3.23303,-0.43095 -3.39424,0.005 -3.41139,9.1954 l -0.0178,9.64747 -5.02478,-8.48808 c -3.36846,-5.69019 -6.09674,-8.63709 -8.27694,-8.94014 -3.21475,-0.44698 -3.25231,-0.19255 -3.25231,22.04541 0,12.37359 0.45258,22.92184 1.00544,23.44059 0.55294,0.51865 2.22752,0.94311 3.72109,0.94311 2.42914,0 2.76056,-1.67879 3.14201,-15.91515 z m 39.13922,10.25231 c 2.9299,-2.93146 4.31464,-6.20296 5.09027,-12.02592 2.85324,-21.42076 -5.89143,-35.83114 -17.036,-28.07359 -6.09651,4.24376 -8.35704,11.8933 -7.35165,24.87776 1.55195,20.04258 8.7803,25.74433 19.29738,15.22175 z m -10.05418,-2.81553 c -1.23414,-3.64744 -1.24463,-30.66325 -0.01,-32.53313 2.11831,-3.21494 5.25725,-1.13343 6.91184,4.58356 2.95023,10.19349 -0.12038,30.7692 -4.59163,30.7692 -0.74443,0 -1.78285,-1.26884 -2.30753,-2.81963 z m 40.98683,7.37464 c 1.34919,-0.80491 1.21912,-3.61248 -0.53981,-11.64947 -1.27456,-5.82397 -2.23493,-11.5439 -2.13419,-12.71098 0.10093,-1.16711 0.57463,-5.40665 1.05315,-9.42121 0.74781,-6.27384 0.40244,-7.73764 -2.45781,-10.42063 -2.69259,-2.52565 -4.48081,-2.97646 -9.36804,-2.36156 -3.3221,0.4181 -6.46703,1.28761 -6.9887,1.93255 -0.52157,0.64499 -0.74484,10.88086 -0.49593,22.74653 l 0.45261,21.5738 h 3.67564 c 3.65364,0 3.66992,-0.0636 2.71945,-10.61006 -0.9024,-10.01394 -0.78412,-10.61011 2.10559,-10.61011 3.64295,0 4.87229,3.43026 4.9012,13.67523 0.0178,6.53803 0.97741,8.40037 4.5451,8.82632 0.41499,0.048 1.55399,-0.38714 2.53163,-0.97041 z m -14.59706,-33.45219 c 0,-7.00822 0.34374,-7.88441 3.09523,-7.88441 2.78568,0 3.04954,0.74128 2.63931,7.4138 -0.35229,5.7299 -1.05534,7.52071 -3.09523,7.88446 -2.25789,0.40262 -2.63931,-0.66861 -2.63931,-7.41385 z m 74.09433,32.33995 c 5.36845,-2.60405 8.19688,-8.25319 9.51506,-19.0042 1.97996,-16.14822 -5.71712,-29.21435 -15.36139,-26.07684 -6.29713,2.04863 -9.42401,9.29374 -9.42682,21.84213 -0.002,11.86799 1.68101,18.899 5.46439,22.82046 3.08989,3.20264 3.98974,3.24103 9.80876,0.41865 z m -5.47446,-4.86064 c -1.78677,-2.71185 -2.81816,-21.28332 -1.60385,-28.87898 0.66526,-4.16116 1.7952,-6.48474 3.15353,-6.48474 3.74393,0 5.23925,5.17749 5.23925,18.14104 0,10.19505 -0.54208,13.29624 -2.77606,15.88416 -2.15135,2.4921 -3.05432,2.79329 -4.01287,1.33852 z m 39.96878,-16.36397 v -23.44059 l -3.39338,0.45234 c -3.33838,0.44485 -3.39777,0.80667 -3.66334,22.32358 -0.14821,12.02934 0.0616,22.37417 0.46627,22.98852 0.40471,0.61435 2.05327,1.11701 3.66329,1.11701 2.77986,0 2.92732,-1.18068 2.92732,-23.44059 z m 41.42151,14.40666 c -0.56887,-3.9792 -1.8659,-9.53551 -2.88258,-12.34735 -1.4967,-4.13954 -1.46496,-5.60435 0.16643,-7.69742 3.29227,-4.22335 2.48859,-11.63152 -1.68674,-15.54795 -3.94545,-3.70086 -5.29861,-3.97668 -12.69951,-2.58822 l -4.71309,0.88414 v 22.45801 22.45801 h 3.77045 c 3.6899,0 3.77044,-0.22875 3.77044,-10.71378 0,-9.42415 0.31637,-10.65668 2.62768,-10.23916 2.86571,0.51757 4.45208,5.48387 4.7348,14.8227 0.17613,5.82782 2.00037,7.80192 5.94742,6.43703 1.49532,-0.51704 1.73821,-2.51278 0.96446,-7.92601 z m -14.27436,-25.7294 c 0,-6.74479 0.38135,-7.81663 2.6393,-7.41491 3.35576,0.59708 4.68471,12.24521 1.60603,14.07646 -3.66077,2.17748 -4.24533,1.26024 -4.24533,-6.66155 z m 26.82669,14.25048 c 0.49934,-22.81302 -0.0456,-26.17153 -4.23279,-26.17153 -2.85785,0 -2.98764,1.01827 -2.98764,23.44056 v 23.44058 l 3.39344,-0.45233 c 3.31033,-0.44111 3.40398,-0.93676 3.82699,-20.25753 z m 51.29681,18.81525 c 3.05804,-2.86853 2.06655,-3.78102 -4.59994,-4.23346 l -6.40975,-0.43522 v -10.61006 -10.61011 l 4.9016,-0.44326 c 7.01106,-0.63408 6.60498,-4.50805 -0.47255,-4.50805 -5.15468,0 -5.35487,-0.18778 -4.90159,-4.59774 0.41497,-4.03727 1.10139,-4.68391 5.63133,-5.305 2.83727,-0.38924 5.43889,-1.50311 5.7813,-2.47568 0.45546,-1.29281 -2.00453,-1.76835 -9.14629,-1.76835 h -9.76893 l 0.0673,22.56441 c 0.0655,21.76602 0.17957,22.5851 3.23355,23.14953 6.691,1.23661 13.94888,0.90007 15.68374,-0.72719 z m -162.32711,-3.98119 c 3.49028,-4.40214 5.00232,-15.48443 3.57483,-26.20137 -1.39029,-10.43774 -5.61329,-14.80422 -14.31769,-14.80422 h -6.10127 v 22.71237 22.71237 l 7.0121,-0.4315 c 5.42357,-0.33365 7.65086,-1.23689 9.83203,-3.98792 z m -9.30327,-18.37075 c 0,-18.0925 0.12543,-18.87924 2.63935,-16.52145 2.15918,2.02538 2.6393,5.03077 2.6393,16.52145 0,11.49063 -0.47994,14.49608 -2.6393,16.52138 -2.51366,2.35784 -2.63935,1.57111 -2.63935,-16.52138 z m 142.54117,20.2933 c 4.00547,-3.75716 5.26002,-8.46143 5.26002,-19.72349 0,-16.94549 -4.24476,-23.20465 -15.73669,-23.20465 h -5.37778 v 22.63484 22.63483 h 6.67909 c 4.20434,0 7.60399,-0.86758 9.17536,-2.34153 z m -8.31356,-20.29453 c 0,-18.36311 1.25114,-22.34658 4.37701,-13.93567 3.35702,9.0329 1.18347,32.32646 -3.01637,32.32646 -0.74832,0 -1.36064,-8.27585 -1.36064,-18.39079 z m -147.09932,-30.23795 c 6.44725,-6.04761 7.14034,-28.56075 1.11345,-36.16869 -3.87186,-4.88759 -11.05368,-5.53685 -15.1891,-1.37318 -4.65406,4.68584 -6.91754,17.01143 -4.8755,26.54915 2.83111,13.22304 11.32241,18.14851 18.95115,10.99272 z m -10.34364,-7.36672 c -0.50333,-1.23076 -0.91545,-6.56393 -0.91545,-11.85155 0,-6.93719 0.64765,-10.11801 2.3262,-11.4247 1.61321,-1.25587 2.8078,-1.3591 3.8976,-0.33686 2.32033,2.17643 3.36254,17.46351 1.49727,21.96046 -1.77572,4.28101 -5.37299,5.15452 -6.80562,1.65265 z m 38.8521,3.92037 c 0.50617,-2.87066 1.00774,-7.12917 1.11503,-9.46339 l 0.19499,-4.24401 1.15127,4.24401 c 0.63322,2.33422 1.23163,6.63129 1.32978,9.54911 0.15631,4.64397 0.63969,5.30499 3.88053,5.30499 4.12118,0 4.12036,0.002 6.88542,-21.22017 0.86166,-6.61358 1.93995,-13.77542 2.39621,-15.9151 0.73034,-3.42529 0.37278,-3.89037 -2.99245,-3.89037 -4.07471,0 -4.88432,2.04099 -5.89224,14.8541 -0.35683,4.53797 -0.6962,3.62729 -1.71289,-4.59767 -1.03903,-8.40605 -1.74768,-10.25643 -3.92783,-10.25643 -3.24616,0 -4.49107,2.75391 -4.49107,9.93494 0,3.00277 -0.67866,5.85299 -1.50814,6.33382 -0.94209,0.5462 -1.50818,-2.34307 -1.50818,-7.69722 v -8.57154 h -4.55324 c -3.93781,0 -4.45231,0.43042 -3.80624,3.18303 0.41097,1.75064 1.82645,10.81098 3.14569,20.13402 1.3193,9.32302 3.1403,17.38088 4.04657,17.90627 3.0149,1.74782 5.31651,-0.3112 6.24671,-5.58839 z m 120.7298,5.94674 c 1.52834,-0.55015 2.38559,-2.58782 2.38559,-5.67073 0,-4.49217 -0.20634,-4.69369 -3.1082,-3.03164 -2.66016,1.52367 -3.43796,1.37248 -5.39597,-1.04904 -4.64776,-5.748 -0.3557,-27.97471 4.519,-23.40219 2.9401,2.75785 4.16826,1.48605 3.69919,-3.83038 -0.44119,-5.00136 -0.76097,-5.30507 -5.58396,-5.30507 -6.97424,0 -10.99966,5.22167 -11.90308,15.44033 -1.68782,19.0915 4.91772,30.61724 15.38743,26.84872 z m 37.07365,-1.97068 c 2.02077,-1.8955 3.01631,-4.71556 3.01631,-8.54411 0,-4.79961 -0.96601,-6.60289 -6.03268,-11.26141 -6.70355,-6.16342 -6.93503,-6.78971 -3.93365,-10.63995 1.7279,-2.21657 2.50398,-2.37745 4.38887,-0.91013 1.94667,1.5154 2.44732,1.10989 3.34076,-2.70582 1.15776,-4.9444 -0.64326,-6.90535 -6.37652,-6.9426 -10.80123,-0.0702 -14.54027,20.08499 -4.68938,25.27787 4.75402,2.50605 7.10027,7.96304 4.48041,10.4205 -1.21288,1.1377 -2.49081,0.85855 -4.71571,-1.03016 -3.00975,-2.55494 -3.05199,-2.52083 -3.05199,2.46198 0,2.77901 0.84835,5.37382 1.88522,5.76628 4.11821,1.55869 8.82082,0.79732 11.68836,-1.89245 z m -211.36074,-15.20778 c -0.51758,-15.99972 -0.41894,-16.6384 2.6319,-17.04704 2.47521,-0.33151 3.01501,-1.18405 2.46344,-3.89041 -0.66165,-3.24674 -1.3146,-3.46576 -10.33363,-3.46576 -9.26367,0 -9.62727,0.13373 -9.62727,3.53666 0,2.59358 0.80435,3.53672 3.01631,3.53672 2.84877,0 3.01637,0.94311 3.01637,16.97613 v 16.97613 h 4.68538 4.68539 z m 80.14948,-3.89041 v -20.5128 h -3.77045 -3.77045 v 20.5128 20.51284 h 3.77045 3.77045 z m 10.71641,11.67114 0.15903,-8.84176 2.9881,8.84176 c 2.2941,6.78822 3.65827,8.8417 5.87353,8.8417 2.70913,0 2.88544,-1.25335 2.88544,-20.51284 v -20.5128 h -3.59756 c -3.46862,0 -3.57704,0.31708 -3.02492,8.84173 0.5552,8.57362 0.50618,8.71306 -1.61298,4.59771 -1.20218,-2.3342 -2.63122,-6.31303 -3.17569,-8.84175 -0.78481,-3.64482 -1.73663,-4.59769 -4.59254,-4.59769 h -3.60263 v 20.5128 20.51284 h 3.77045 c 3.60264,0 3.77752,-0.39352 3.92965,-8.8417 z m 31.08377,3.0662 c -0.92549,-6.4725 0.34942,-6.21372 2.81897,0.57199 1.55057,4.26083 2.08348,4.51843 10.18019,4.92047 8.27098,0.41061 8.54402,0.30903 8.54402,-3.18304 0,-4.7608 5.59126,-5.13705 6.30487,-0.42398 0.33403,2.20642 1.66121,3.31191 4.32571,3.60315 l 3.84385,0.42026 -1.91081,-14.56691 c -3.82871,-29.18817 -2.89649,-26.5917 -9.5473,-26.5917 -6.63811,0 -5.63704,-2.71678 -9.64404,26.17154 l -1.96224,14.14677 -2.63838,-5.58866 c -2.43336,-5.15437 -2.45121,-5.8858 -0.22972,-9.41364 3.58861,-5.69842 3.19461,-18.33869 -0.71697,-23.00323 -2.53596,-3.02406 -4.3859,-3.72749 -9.80314,-3.72749 h -6.67737 v 21.22018 21.22017 h 3.96905 c 3.77329,0 3.92828,-0.28498 3.14313,-5.77553 z m 23.05134,-17.56665 c 0,-4.27944 0.67867,-7.78075 1.50816,-7.78075 0.82955,0 1.50821,3.50131 1.50821,7.78075 0,4.27938 -0.67866,7.78073 -1.50821,7.78073 -0.82949,0 -1.50816,-3.50135 -1.50816,-7.78073 z m -22.73863,2.9472 c -0.91295,-6.49375 -0.0399,-12.84999 1.76916,-12.84999 2.76449,0 2.98126,12.2262 0.232,13.0858 -1.03687,0.32402 -1.93744,0.21819 -2.00122,-0.23578 z m 72.23156,16.50461 c -0.34144,-2.78552 -1.44095,-4.01876 -3.8706,-4.34242 -4.67114,-0.62231 -5.0213,-8.74337 -0.37736,-8.74337 2.21202,0 3.01638,-0.94314 3.01638,-3.53671 0,-2.59352 -0.80436,-3.53663 -3.01638,-3.53663 -2.44178,0 -3.01636,-0.94315 -3.01636,-4.95143 0,-4.33835 0.46684,-4.95136 3.77044,-4.95136 3.01638,0 3.77045,-0.70734 3.77045,-3.53672 0,-3.30089 -0.50276,-3.53666 -7.54089,-3.53666 h -7.54084 v 20.5128 20.51284 h 7.64105 c 7.44593,0 7.62884,-0.0995 7.16382,-3.89034 z M 99.50493,-327.80679 c 4.03047,-4.66888 3.40164,-5.29024 -4.62218,-4.56702 -4.34508,0.3919 -8.76295,-0.0641 -10.86854,-1.12108 -3.47434,-1.74412 -3.39323,-1.84545 3.92758,-4.90607 4.11134,-1.71879 8.58256,-4.33162 9.93608,-5.80627 6.37504,-6.94568 4.52155,-15.42966 -4.52358,-20.70585 -4.82121,-2.81226 -7.87481,-3.25462 -25.46155,-3.68798 l -19.98332,-0.49243 v 22.06629 22.0663 h 10.55727 10.5572 v -4.24403 c 0,-4.58884 2.06442,-5.58833 4.1886,-2.02794 0.72719,1.21885 3.30596,3.48073 5.73064,5.02639 5.86956,3.74169 16.67632,2.90058 20.5618,-1.60031 z m -30.48104,-23.32568 c 0,-11.83753 0.0581,-12.02477 3.71739,-12.02477 4.6779,0 6.83982,3.67188 6.83982,11.61696 0,7.00931 -3.32674,12.43257 -7.62639,12.43257 -2.67244,0 -2.93082,-1.06004 -2.93082,-12.02476 z m 58.81884,4.24404 v -21.9275 h -10.55721 -10.55726 v 21.9275 21.92749 h 10.55726 10.55721 z m 50.7032,18.3034 c 7.38859,-5.18197 10.20391,-9.96827 10.20391,-17.34768 0,-9.14977 -4.19162,-15.69176 -12.62251,-19.70021 -5.76733,-2.74206 -9.05336,-3.18301 -23.71928,-3.18301 h -17.02442 v 22.03993 22.03988 l 19.50173,-0.46624 c 16.87466,-0.40314 20.06198,-0.85895 23.66057,-3.38282 z m -22.04787,-17.50076 c 0,-15.96226 0.19044,-17.07145 2.93086,-17.07145 5.22281,0 7.6264,5.36429 7.6264,17.0205 0,11.3837 -1.41307,14.57458 -7.16389,16.1769 -3.38728,0.94381 -3.39337,0.91483 -3.39337,-16.12595 z m 81.44147,19.06236 c 0,-1.59392 -2.65544,-2.15642 -11.68838,-2.47567 l -11.68834,-0.41331 -0.3802,-12.37847 c -0.27931,-9.10295 0.11963,-12.41503 1.50815,-12.51684 1.03859,-0.0759 6.28594,-0.23528 11.66095,-0.35342 7.99384,-0.17596 9.86695,-0.66588 10.29078,-2.69093 0.45885,-2.1935 -0.86981,-2.47568 -11.65792,-2.47568 -7.1119,0 -12.17602,-0.58839 -12.17602,-1.41468 0,-1.63318 0.76326,-1.72118 12.41564,-1.4315 9.67163,0.24056 11.97743,-0.52558 10.73388,-3.56519 -0.69052,-1.68794 -4.77216,-2.07671 -21.80267,-2.07671 h -20.95309 v 21.92749 21.9275 h 21.86855 c 18.15281,0 21.86855,-0.35021 21.86855,-2.06248 z m 31.98529,-8.63922 0.44062,-10.70176 6.4496,5.18524 c 7.60583,6.11483 7.31337,6.24391 18.79713,-8.29494 l 7.9331,-10.04366 0.42355,17.27843 0.42352,17.2784 h 9.75673 9.75674 v -21.92749 -21.9275 l -10.18021,0.0428 -10.1802,0.0428 -5.2786,6.52064 c -2.90321,3.58633 -5.72658,7.17205 -6.27408,7.96832 -0.57309,0.83333 -5.12396,-1.95224 -10.72452,-6.56441 -6.56979,-5.41039 -11.02143,-8.01203 -13.70919,-8.01203 h -3.98021 v 21.92749 c 0,20.82736 0.14819,21.9275 2.95287,21.9275 2.63276,0 3.00069,-1.16042 3.39343,-10.70171 z m 91.68505,-1.15652 v -11.85826 l 7.5109,-9.00825 c 4.13106,-4.95451 7.52445,-9.48569 7.5409,-10.06925 0.0177,-0.58353 -1.49708,-1.03619 -3.36345,-1.00583 -2.23634,0.0375 -5.08799,2.21572 -8.36343,6.39179 l -4.97004,6.33663 -4.90327,-6.03815 -4.90323,-6.03812 -11.61819,-0.41329 c -6.38997,-0.22725 -11.61819,-0.0583 -11.61819,0.37534 0,0.43361 3.3934,5.16475 7.5409,10.51354 l 7.54085,9.72498 v 11.47353 11.47347 h 9.80314 9.80311 z m 82.94793,9.38036 c 10.89078,-5.10492 11.22777,-16.79761 0.58818,-20.40644 -5.55002,-1.88252 -6.39372,-3.23011 -2.82607,-4.5143 3.32914,-1.19828 5.57816,-7.58962 3.77985,-10.7415 -2.3864,-4.18253 -9.93645,-5.71488 -28.15832,-5.71488 h -17.11897 v 21.9275 21.92749 l 19.22925,-0.002 c 15.28614,-0.002 20.31126,-0.50958 24.50608,-2.47569 z m -24.12907,-10.96158 c 0,-9.40449 1.05098,-10.76522 6.03268,-7.81013 2.95498,1.75285 2.84011,13.93202 -0.14821,15.70665 -4.82231,2.86391 -5.88461,1.4385 -5.88461,-7.89652 z m 0,-19.80548 c 0,-3.95804 0.58722,-4.95137 2.92731,-4.95137 3.80078,0 5.1234,2.14616 3.97272,6.44644 -0.59136,2.21015 -2.00199,3.45635 -3.9124,3.45635 -2.40901,0 -2.98763,-0.959 -2.98763,-4.95142 z m 57.31068,11.31744 v -21.9275 h -9.80315 -9.80317 v 21.9275 21.92749 h 9.80317 9.80315 z m 28.96038,13.08579 0.44917,-8.84179 4.51164,8.84179 4.51165,8.8417 h 10.94716 c 6.02093,0 10.94716,-0.40742 10.94716,-0.90523 0,-0.49778 -3.90242,-7.89301 -8.67199,-16.43365 l -8.67204,-15.52842 3.72108,-2.31084 c 2.0466,-1.27094 5.44004,-3.72302 7.5409,-5.44915 l 3.81981,-3.13832 -4.26072,-0.0428 c -2.82622,-0.0266 -7.65017,2.35234 -14.32765,7.07481 l -10.067,7.11945 -0.45601,-7.11945 -0.45602,-7.1195 h -9.72435 c -5.34837,0 -9.75029,0.47748 -9.78209,1.06103 -0.0342,0.58355 -0.20122,10.45114 -0.37679,21.92802 l -0.31921,20.86707 10.10821,-5.3e-4 10.1082,-6e-4 z m 79.62824,6.77921 c 0,-1.59392 -2.65549,-2.15642 -11.68835,-2.47567 l -11.68837,-0.41331 v -12.73212 -12.73208 h 11.28582 c 9.54747,0 11.36486,-0.38123 11.79893,-2.47574 0.45488,-2.19475 -0.88262,-2.47568 -11.78856,-2.47568 -9.17104,0 -12.1417,-0.4502 -11.67319,-1.76836 0.40756,-1.14634 4.03226,-1.82362 10.30583,-1.92558 13.23043,-0.21492 13.46932,-0.26628 12.48513,-2.67208 -0.71406,-1.74536 -4.58757,-2.12205 -21.82124,-2.12205 h -20.95311 v 21.92753 21.92753 h 21.86856 c 18.15282,0 21.86855,-0.35024 21.86855,-2.06253 z m -265.52746,-53.77428 c 5.35435,-2.59723 7.62947,-8.51663 7.62947,-19.85038 0,-11.29439 -4.32593,-18.15694 -11.87755,-18.84212 -6.41111,-0.5817 -9.86572,2.35718 -12.28043,10.44697 -4.01482,13.45061 1.75385,28.24349 11.79045,30.23487 0.2486,0.048 2.38068,-0.84589 4.73806,-1.98934 z m -6.22988,-18.7875 c -0.25763,-9.14233 -0.34369,-16.84534 -0.19145,-17.11777 0.15226,-0.27269 1.00056,-0.0759 1.88524,0.43738 2.02344,1.17304 2.20837,33.30305 0.19145,33.30305 -0.77926,0 -1.62757,-7.48009 -1.88516,-16.62243 z m -56.5791,0.001 -0.30837,-19.4529 -5.34735,-0.43896 -5.34734,-0.439 v 19.89091 19.8909 l 5.65566,0.001 5.65561,10e-4 z m 37.19152,15.48731 c 5.32089,-4.9911 7.00953,-13.46136 4.5785,-22.96665 -2.38432,-9.32287 -6.92867,-12.68126 -17.15729,-12.67971 l -7.71452,0.001 v 19.80501 19.80504 l 8.03397,-7.5e-4 c 6.78874,-5.9e-4 8.68885,-0.61499 12.25934,-3.96413 z m -9.73605,-15.84539 c 0,-10.68894 0.55863,-16.80017 1.50818,-16.50247 0.88705,0.27804 1.50814,7.07546 1.50814,16.50584 0,9.43252 -0.62087,16.22624 -1.50814,16.50245 -0.9495,0.29568 -1.50818,-5.81909 -1.50818,-16.50582 z m 52.69097,17.33315 c -0.64458,-1.36164 -1.42362,-5.34041 -1.73125,-8.84173 -0.62437,-7.10784 -0.69419,-7.14853 8.20509,4.78584 2.67872,3.59236 5.52205,6.53157 6.31841,6.53157 1.73766,0 2.86725,-31.84875 1.29201,-36.42796 -1.21791,-3.54047 -5.33921,-4.28215 -6.60468,-1.18871 -0.44862,1.09691 0.30037,4.0191 1.66461,6.49378 1.36429,2.47464 2.04313,5.55595 1.50855,6.84738 -0.72111,1.74215 -2.34135,0.0669 -6.27931,-6.49377 -3.17775,-5.29387 -6.31127,-8.84122 -7.80922,-8.84052 -2.21105,0.001 -2.50177,2.30265 -2.50177,19.8062 v 19.80504 l 3.55476,-7.6e-4 c 2.82638,-5.2e-4 3.31462,-0.50794 2.3828,-2.47636 z m 44.99126,-16.2668 c -0.25537,-13.70157 0.0614,-17.82535 1.17708,-15.32365 1.90919,4.28157 5.26072,1.90716 3.72292,-2.63756 -0.92646,-2.73806 -1.94103,-2.99524 -10.33001,-2.61813 -8.33915,0.37481 -9.35253,0.74787 -9.78454,3.60118 -0.26505,1.75066 0.24406,3.18307 1.13115,3.18307 0.88718,0 1.61303,-0.63665 1.61303,-1.41472 0,-0.77806 0.54097,-1.41464 1.20263,-1.41464 1.10488,0 1.07415,4.38512 -0.19095,27.23256 l -0.4503,8.13437 6.12888,0.002 6.12896,0.002 -0.34941,-18.74647 z m -160.54837,-2.12401 -0.47709,-3.89038 H 142.17051 62.23717 l -0.47709,3.89038 -0.47711,3.89034 h 80.88777 80.88775 z m 348.66532,-0.23528 v -4.12554 l -76.20186,-0.13625 c -41.91104,-0.0749 -77.88108,0.25932 -79.93331,0.74219 -2.66855,0.62825 -3.73142,1.84219 -3.73142,4.26179 v 3.38335 h 79.93334 79.93325 z m -206.91459,-9.0002 c 2.42926,-4.75429 1.08038,-9.50904 -2.69772,-9.50904 -3.51308,0 -4.52919,2.61999 -2.58993,6.67784 1.09369,2.28849 0.94231,3.77283 -0.5575,5.46818 -1.8016,2.0363 -1.68935,2.26036 0.8979,1.79297 1.62628,-0.29355 3.85266,-2.28728 4.94756,-4.42995 z"
       id="path2594"
       inkscape:connector-curvature="0"
       inkscape:export-xdpi="90"
       inkscape:export-ydpi="90" />
  </g>
</svg>
